<?xml version="1.0" encoding="UTF-8" standalone="no"?>
<svg width="200px" height="200px" viewBox="0 0 200 200" version="1.1" xmlns="http://www.w3.org/2000/svg" xmlns:xlink="http://www.w3.org/1999/xlink" xmlns:sketch="http://www.bohemiancoding.com/sketch/ns">
    <!-- Generator: Sketch 3.5.2 (25235) - http://www.bohemiancoding.com/sketch -->
    <title>go-home-youre-drunk</title>
    <desc>Created with Sketch.</desc>
    <defs></defs>
    <g id="Page-1" stroke="none" stroke-width="1" fill="none" fill-rule="evenodd" sketch:type="MSPage">
        <g id="go-home-youre-drunk" sketch:type="MSArtboardGroup" fill="#FFFFFF">
            <path d="M66.1625977,82.512207 L61.0234375,82.512207 L61.0234375,80.7177734 C61.0234375,79.5865829 60.9746099,78.8785822 60.8769531,78.59375 C60.7792964,78.3089178 60.5473651,78.1665039 60.1811523,78.1665039 C59.8637679,78.1665039 59.6481125,78.288573 59.5341797,78.5327148 C59.4202468,78.7768567 59.3632812,79.403478 59.3632812,80.4125977 L59.3632812,89.8974609 C59.3632812,90.7845096 59.4202468,91.3684068 59.5341797,91.6491699 C59.6481125,91.929933 59.8759749,92.0703125 60.2177734,92.0703125 C60.5921243,92.0703125 60.8464349,91.9116227 60.9807129,91.5942383 C61.1149909,91.2768539 61.1821289,90.6583705 61.1821289,89.7387695 L61.1821289,87.3950195 L60.1445312,87.3950195 L60.1445312,84.3920898 L66.1625977,84.3920898 L66.1625977,95 L62.9277344,95 L62.4516602,93.5839844 C62.1017235,94.194339 61.6602403,94.6520981 61.1271973,94.9572754 C60.5941542,95.2624527 59.9654984,95.4150391 59.2412109,95.4150391 C58.3785764,95.4150391 57.5708859,95.2054871 56.8181152,94.786377 C56.0653445,94.3672668 55.4936543,93.8484731 55.1030273,93.2299805 C54.7124004,92.6114878 54.4682622,91.9624871 54.3706055,91.282959 C54.2729487,90.6034308 54.2241211,89.5841539 54.2241211,88.2250977 L54.2241211,82.3535156 C54.2241211,80.4654854 54.3258453,79.0942426 54.5292969,78.2397461 C54.7327484,77.3852496 55.3166456,76.601973 56.2810059,75.8898926 C57.2453661,75.1778122 58.4925054,74.8217773 60.0224609,74.8217773 C61.5280023,74.8217773 62.777176,75.131019 63.7700195,75.7495117 C64.762863,76.3680044 65.4098292,77.1024534 65.7109375,77.9528809 C66.0120458,78.8033083 66.1625977,80.0382406 66.1625977,81.6577148 L66.1625977,82.512207 Z M80.8955078,86.809082 C80.8955078,88.794769 80.8487147,90.2005981 80.755127,91.0266113 C80.6615392,91.8526246 80.3685734,92.6074185 79.8762207,93.2910156 C79.383868,93.9746128 78.7185914,94.4995099 77.8803711,94.8657227 C77.0421508,95.2319354 76.065598,95.4150391 74.9506836,95.4150391 C73.8927356,95.4150391 72.9426312,95.2421078 72.1003418,94.8962402 C71.2580524,94.5503726 70.580569,94.031579 70.0678711,93.3398438 C69.5551732,92.6481085 69.2500005,91.8953491 69.1523438,91.081543 C69.054687,90.2677368 69.0058594,88.8435974 69.0058594,86.809082 L69.0058594,83.4277344 C69.0058594,81.4420474 69.0526525,80.0362183 69.1462402,79.2102051 C69.2398279,78.3841918 69.5327938,77.6293979 70.0251465,76.9458008 C70.5174992,76.2622036 71.1827758,75.7373065 72.0209961,75.3710938 C72.8592164,75.004881 73.8357692,74.8217773 74.9506836,74.8217773 C76.0086316,74.8217773 76.958736,74.9947086 77.8010254,75.3405762 C78.6433148,75.6864438 79.3207982,76.2052374 79.8334961,76.8969727 C80.346194,77.5887079 80.6513667,78.3414673 80.7490234,79.1552734 C80.8466802,79.9690796 80.8955078,81.393219 80.8955078,83.4277344 L80.8955078,86.809082 Z M75.7563477,80.3149414 C75.7563477,79.3953405 75.7054855,78.8073743 75.6037598,78.5510254 C75.502034,78.2946765 75.2924821,78.1665039 74.9750977,78.1665039 C74.7065416,78.1665039 74.5010587,78.2702626 74.3586426,78.4777832 C74.2162265,78.6853038 74.1450195,79.2976837 74.1450195,80.3149414 L74.1450195,89.543457 C74.1450195,90.6909237 74.1918127,91.3989244 74.2854004,91.6674805 C74.3789881,91.9360365 74.596678,92.0703125 74.9384766,92.0703125 C75.2884132,92.0703125 75.5122065,91.9156917 75.6098633,91.6064453 C75.70752,91.297199 75.7563477,90.5607155 75.7563477,89.3969727 L75.7563477,80.3149414 Z M101.035156,75.2368164 L101.035156,95 L95.8959961,95 L95.8959961,86.6992188 L94.3579102,86.6992188 L94.3579102,95 L89.21875,95 L89.21875,75.2368164 L94.3579102,75.2368164 L94.3579102,82.3046875 L95.8959961,82.3046875 L95.8959961,75.2368164 L101.035156,75.2368164 Z M115.841309,86.809082 C115.841309,88.794769 115.794515,90.2005981 115.700928,91.0266113 C115.60734,91.8526246 115.314374,92.6074185 114.822021,93.2910156 C114.329669,93.9746128 113.664392,94.4995099 112.826172,94.8657227 C111.987952,95.2319354 111.011399,95.4150391 109.896484,95.4150391 C108.838536,95.4150391 107.888432,95.2421078 107.046143,94.8962402 C106.203853,94.5503726 105.52637,94.031579 105.013672,93.3398438 C104.500974,92.6481085 104.195801,91.8953491 104.098145,91.081543 C104.000488,90.2677368 103.95166,88.8435974 103.95166,86.809082 L103.95166,83.4277344 C103.95166,81.4420474 103.998453,80.0362183 104.092041,79.2102051 C104.185629,78.3841918 104.478595,77.6293979 104.970947,76.9458008 C105.4633,76.2622036 106.128577,75.7373065 106.966797,75.3710938 C107.805017,75.004881 108.78157,74.8217773 109.896484,74.8217773 C110.954432,74.8217773 111.904537,74.9947086 112.746826,75.3405762 C113.589116,75.6864438 114.266599,76.2052374 114.779297,76.8969727 C115.291995,77.5887079 115.597167,78.3414673 115.694824,79.1552734 C115.792481,79.9690796 115.841309,81.393219 115.841309,83.4277344 L115.841309,86.809082 Z M110.702148,80.3149414 C110.702148,79.3953405 110.651286,78.8073743 110.549561,78.5510254 C110.447835,78.2946765 110.238283,78.1665039 109.920898,78.1665039 C109.652342,78.1665039 109.446859,78.2702626 109.304443,78.4777832 C109.162027,78.6853038 109.09082,79.2976837 109.09082,80.3149414 L109.09082,89.543457 C109.09082,90.6909237 109.137613,91.3989244 109.231201,91.6674805 C109.324789,91.9360365 109.542479,92.0703125 109.884277,92.0703125 C110.234214,92.0703125 110.458007,91.9156917 110.555664,91.6064453 C110.653321,91.297199 110.702148,90.5607155 110.702148,89.3969727 L110.702148,80.3149414 Z M134.614746,75.2368164 L134.614746,95 L130.122559,95 L130.122559,81.6577148 L128.328125,95 L125.14209,95 L123.25,81.9628906 L123.25,95 L118.757812,95 L118.757812,75.2368164 L125.410645,75.2368164 C125.605958,76.4249734 125.813475,77.824699 126.033203,79.4360352 L126.741211,84.465332 L127.913086,75.2368164 L134.614746,75.2368164 Z M137.677734,75.2368164 L146.24707,75.2368164 L146.24707,79.1918945 L142.816895,79.1918945 L142.816895,82.9394531 L146.027344,82.9394531 L146.027344,86.6992188 L142.816895,86.6992188 L142.816895,91.0449219 L146.588867,91.0449219 L146.588867,95 L137.677734,95 L137.677734,75.2368164 Z M152.203125,90.9716797 L152.203125,95 L148.47998,95 L148.47998,90.9716797 L152.203125,90.9716797 Z M36.4165039,105.236816 L32.6689453,117.84668 L32.6689453,125 L27.9082031,125 L27.9082031,117.84668 L24.2949219,105.236816 L29.019043,105.236816 C29.7596066,109.08612 30.1746415,111.678053 30.2641602,113.012695 C30.5489923,110.904937 31.0250618,108.313004 31.6923828,105.236816 L36.4165039,105.236816 Z M50.0385742,116.809082 C50.0385742,118.794769 49.9917811,120.200598 49.8981934,121.026611 C49.8046057,121.852625 49.5116398,122.607418 49.0192871,123.291016 C48.5269344,123.974613 47.8616578,124.49951 47.0234375,124.865723 C46.1852172,125.231935 45.2086644,125.415039 44.09375,125.415039 C43.035802,125.415039 42.0856976,125.242108 41.2434082,124.89624 C40.4011188,124.550373 39.7236354,124.031579 39.2109375,123.339844 C38.6982396,122.648109 38.3930669,121.895349 38.2954102,121.081543 C38.1977534,120.267737 38.1489258,118.843597 38.1489258,116.809082 L38.1489258,113.427734 C38.1489258,111.442047 38.1957189,110.036218 38.2893066,109.210205 C38.3828943,108.384192 38.6758602,107.629398 39.1682129,106.945801 C39.6605656,106.262204 40.3258422,105.737307 41.1640625,105.371094 C42.0022828,105.004881 42.9788356,104.821777 44.09375,104.821777 C45.151698,104.821777 46.1018024,104.994709 46.9440918,105.340576 C47.7863812,105.686444 48.4638646,106.205237 48.9765625,106.896973 C49.4892604,107.588708 49.7944331,108.341467 49.8920898,109.155273 C49.9897466,109.96908 50.0385742,111.393219 50.0385742,113.427734 L50.0385742,116.809082 Z M44.8994141,110.314941 C44.8994141,109.39534 44.8485519,108.807374 44.7468262,108.551025 C44.6451004,108.294676 44.4355485,108.166504 44.1181641,108.166504 C43.849608,108.166504 43.6441251,108.270263 43.501709,108.477783 C43.3592929,108.685304 43.2880859,109.297684 43.2880859,110.314941 L43.2880859,119.543457 C43.2880859,120.690924 43.3348791,121.398924 43.4284668,121.66748 C43.5220545,121.936036 43.7397444,122.070312 44.081543,122.070312 C44.4314796,122.070312 44.6552729,121.915692 44.7529297,121.606445 C44.8505864,121.297199 44.8994141,120.560715 44.8994141,119.396973 L44.8994141,110.314941 Z M64.637207,105.236816 L64.637207,118.444824 C64.637207,119.942228 64.5883794,120.994056 64.4907227,121.600342 C64.3930659,122.206627 64.1041691,122.82918 63.6240234,123.468018 C63.1438778,124.106855 62.511153,124.591063 61.7258301,124.920654 C60.9405071,125.250246 60.0148165,125.415039 58.9487305,125.415039 C57.7687115,125.415039 56.7270553,125.219729 55.8237305,124.829102 C54.9204056,124.438475 54.2449567,123.929853 53.7973633,123.303223 C53.3497699,122.676592 53.0852869,122.015384 53.0039062,121.31958 C52.9225256,120.623776 52.8818359,119.160981 52.8818359,116.931152 L52.8818359,105.236816 L58.0209961,105.236816 L58.0209961,120.056152 C58.0209961,120.918787 58.0677892,121.470132 58.161377,121.710205 C58.2549647,121.950278 58.4441718,122.070312 58.7290039,122.070312 C59.0545264,122.070312 59.2640783,121.938071 59.357666,121.673584 C59.4512537,121.409097 59.4980469,120.78451 59.4980469,119.799805 L59.4980469,105.236816 L64.637207,105.236816 Z M67.6879883,111.59668 L67.0410156,108.26416 L67.0410156,105.236816 L70.7763672,105.236816 L70.7763672,108.26416 L70.2148438,111.59668 L67.6879883,111.59668 Z M73.253418,105.236816 L76.8911133,105.236816 C79.3162556,105.236816 80.9580849,105.330403 81.8166504,105.517578 C82.6752159,105.704754 83.3750787,106.182857 83.9162598,106.951904 C84.4574409,107.720951 84.7280273,108.947745 84.7280273,110.632324 C84.7280273,112.170418 84.5367858,113.203936 84.1542969,113.73291 C83.771808,114.261884 83.0190486,114.579264 81.8959961,114.685059 C82.9132538,114.937339 83.5968407,115.275063 83.9467773,115.698242 C84.296714,116.121421 84.5144039,116.510008 84.5998535,116.864014 C84.6853032,117.218019 84.7280273,118.192538 84.7280273,119.787598 L84.7280273,125 L79.9550781,125 L79.9550781,118.432617 C79.9550781,117.374669 79.8716642,116.719565 79.704834,116.467285 C79.5380037,116.215005 79.1005895,116.088867 78.3925781,116.088867 L78.3925781,125 L73.253418,125 L73.253418,105.236816 Z M78.3925781,108.618164 L78.3925781,113.012695 C78.9703805,113.012695 79.375243,112.93335 79.6071777,112.774658 C79.8391125,112.615966 79.9550781,112.101241 79.9550781,111.230469 L79.9550781,110.144043 C79.9550781,109.517412 79.8431815,109.106446 79.6193848,108.911133 C79.3955881,108.715819 78.9866566,108.618164 78.3925781,108.618164 L78.3925781,108.618164 Z M87.7177734,105.236816 L96.2871094,105.236816 L96.2871094,109.191895 L92.8569336,109.191895 L92.8569336,112.939453 L96.0673828,112.939453 L96.0673828,116.699219 L92.8569336,116.699219 L92.8569336,121.044922 L96.6289062,121.044922 L96.6289062,125 L87.7177734,125 L87.7177734,105.236816 Z M104.512695,105.236816 L108.35791,105.236816 C110.840019,105.236816 112.518469,105.350748 113.393311,105.578613 C114.268152,105.806479 114.933429,106.180824 115.38916,106.70166 C115.844892,107.222496 116.129719,107.802324 116.243652,108.441162 C116.357585,109.08 116.414551,110.335277 116.414551,112.207031 L116.414551,119.128418 C116.414551,120.902515 116.331137,122.08862 116.164307,122.686768 C115.997476,123.284915 115.706545,123.752847 115.291504,124.090576 C114.876463,124.428306 114.363773,124.664306 113.753418,124.798584 C113.143063,124.932862 112.223476,125 110.994629,125 L104.512695,125 L104.512695,105.236816 Z M109.651855,108.618164 L109.651855,121.618652 C110.392419,121.618652 110.848144,121.470135 111.019043,121.173096 C111.189942,120.876056 111.275391,120.068366 111.275391,118.75 L111.275391,111.071777 C111.275391,110.176591 111.246908,109.602866 111.189941,109.350586 C111.132975,109.098306 111.002768,108.913168 110.799316,108.795166 C110.595865,108.677164 110.213382,108.618164 109.651855,108.618164 L109.651855,108.618164 Z M119.331055,105.236816 L122.96875,105.236816 C125.393892,105.236816 127.035722,105.330403 127.894287,105.517578 C128.752853,105.704754 129.452715,106.182857 129.993896,106.951904 C130.535078,107.720951 130.805664,108.947745 130.805664,110.632324 C130.805664,112.170418 130.614422,113.203936 130.231934,113.73291 C129.849445,114.261884 129.096685,114.579264 127.973633,114.685059 C128.990891,114.937339 129.674477,115.275063 130.024414,115.698242 C130.374351,116.121421 130.592041,116.510008 130.67749,116.864014 C130.76294,117.218019 130.805664,118.192538 130.805664,119.787598 L130.805664,125 L126.032715,125 L126.032715,118.432617 C126.032715,117.374669 125.949301,116.719565 125.782471,116.467285 C125.61564,116.215005 125.178226,116.088867 124.470215,116.088867 L124.470215,125 L119.331055,125 L119.331055,105.236816 Z M124.470215,108.618164 L124.470215,113.012695 C125.048017,113.012695 125.45288,112.93335 125.684814,112.774658 C125.916749,112.615966 126.032715,112.101241 126.032715,111.230469 L126.032715,110.144043 C126.032715,109.517412 125.920818,109.106446 125.697021,108.911133 C125.473225,108.715819 125.064293,108.618164 124.470215,108.618164 L124.470215,108.618164 Z M145.477539,105.236816 L145.477539,118.444824 C145.477539,119.942228 145.428711,120.994056 145.331055,121.600342 C145.233398,122.206627 144.944501,122.82918 144.464355,123.468018 C143.98421,124.106855 143.351485,124.591063 142.566162,124.920654 C141.780839,125.250246 140.855149,125.415039 139.789062,125.415039 C138.609044,125.415039 137.567387,125.219729 136.664062,124.829102 C135.760738,124.438475 135.085289,123.929853 134.637695,123.303223 C134.190102,122.676592 133.925619,122.015384 133.844238,121.31958 C133.762858,120.623776 133.722168,119.160981 133.722168,116.931152 L133.722168,105.236816 L138.861328,105.236816 L138.861328,120.056152 C138.861328,120.918787 138.908121,121.470132 139.001709,121.710205 C139.095297,121.950278 139.284504,122.070312 139.569336,122.070312 C139.894858,122.070312 140.10441,121.938071 140.197998,121.673584 C140.291586,121.409097 140.338379,120.78451 140.338379,119.799805 L140.338379,105.236816 L145.477539,105.236816 Z M159.941895,105.236816 L159.941895,125 L155.4375,125 L152.76416,116.015625 L152.76416,125 L148.467285,125 L148.467285,105.236816 L152.76416,105.236816 L155.64502,114.135742 L155.64502,105.236816 L159.941895,105.236816 Z M175.248535,105.236816 L172.306641,114.160156 L175.529297,125 L170.219238,125 L168.144043,116.52832 L168.144043,125 L163.004883,125 L163.004883,105.236816 L168.144043,105.236816 L168.144043,112.915039 L170.426758,105.236816 L175.248535,105.236816 Z M181.106934,120.97168 L181.106934,125 L177.383789,125 L177.383789,120.97168 L181.106934,120.97168 Z" id="GO-HOME." sketch:type="MSShapeGroup"></path>
            <path d="M75.266,160.228 L75.266,159.568 L83.03,159.568 L83.03,160.228 L75.266,160.228 Z M88.226,161.176 C88.218,161.536002 88.1960002,161.867998 88.16,162.172 C88.1239998,162.476002 88.0560005,162.771999 87.956,163.06 C87.8559995,163.348001 87.7180009,163.635999 87.542,163.924 C87.3659991,164.212001 87.1340014,164.511998 86.846,164.824 L86.258,164.356 C86.666002,163.891998 86.9599991,163.422002 87.14,162.946 C87.3200009,162.469998 87.41,161.932003 87.41,161.332 L87.41,155.008 L88.226,155.008 L88.226,161.176 Z M95.102,160.144 C95.102,160.536002 95.0440006,160.911998 94.928,161.272 C94.8119994,161.632002 94.6400011,161.947999 94.412,162.22 C94.1839989,162.492001 93.9020017,162.709999 93.566,162.874 C93.2299983,163.038001 92.8460022,163.12 92.414,163.12 C91.9819978,163.12 91.5980017,163.038001 91.262,162.874 C90.9259983,162.709999 90.6440011,162.492001 90.416,162.22 C90.1879989,161.947999 90.0160006,161.632002 89.9,161.272 C89.7839994,160.911998 89.726,160.536002 89.726,160.144 C89.726,159.751998 89.7839994,159.374002 89.9,159.01 C90.0160006,158.645998 90.1879989,158.328001 90.416,158.056 C90.6440011,157.783999 90.9259983,157.566001 91.262,157.402 C91.5980017,157.237999 91.9819978,157.156 92.414,157.156 C92.8460022,157.156 93.2299983,157.237999 93.566,157.402 C93.9020017,157.566001 94.1839989,157.783999 94.412,158.056 C94.6400011,158.328001 94.8119994,158.645998 94.928,159.01 C95.0440006,159.374002 95.102,159.751998 95.102,160.144 L95.102,160.144 Z M94.298,160.144 C94.298,159.823998 94.2580004,159.520001 94.178,159.232 C94.0979996,158.943999 93.9800008,158.696001 93.824,158.488 C93.6679992,158.279999 93.4720012,158.114001 93.236,157.99 C92.9999988,157.865999 92.7260016,157.804 92.414,157.804 C92.1019984,157.804 91.8280012,157.865999 91.592,157.99 C91.3559988,158.114001 91.1600008,158.279999 91.004,158.488 C90.8479992,158.696001 90.7300004,158.943999 90.65,159.232 C90.5699996,159.520001 90.53,159.823998 90.53,160.144 C90.53,160.472002 90.5699996,160.775999 90.65,161.056 C90.7300004,161.336001 90.8479992,161.581999 91.004,161.794 C91.1600008,162.006001 91.3559988,162.171999 91.592,162.292 C91.8280012,162.412001 92.1019984,162.472 92.414,162.472 C92.7260016,162.472 92.9999988,162.412001 93.236,162.292 C93.4720012,162.171999 93.6679992,162.006001 93.824,161.794 C93.9800008,161.581999 94.0979996,161.336001 94.178,161.056 C94.2580004,160.775999 94.298,160.472002 94.298,160.144 L94.298,160.144 Z M97.046,165.472 L97.91,163.036 L95.846,157.276 L96.686,157.276 L98.318,162.148 L99.926,157.276 L100.754,157.276 L97.838,165.472 L97.046,165.472 Z M110.078,163 L105.338,156.316 L105.338,163 L104.558,163 L104.558,155.008 L105.338,155.008 L110.078,161.692 L110.078,155.008 L110.858,155.008 L110.858,163 L110.078,163 Z M114.938,157.156 C115.314002,157.156 115.635999,157.217999 115.904,157.342 C116.172001,157.466001 116.393999,157.635999 116.57,157.852 C116.746001,158.068001 116.874,158.319999 116.954,158.608 C117.034,158.896001 117.074,159.203998 117.074,159.532 C117.074,159.788001 117.05,160.051999 117.002,160.324 L113.234,160.324 C113.242,161.028004 113.409998,161.563998 113.738,161.932 C114.066002,162.300002 114.557997,162.484 115.214,162.484 C115.518002,162.484 115.813999,162.45 116.102,162.382 C116.390001,162.314 116.649999,162.224001 116.882,162.112 L117.014,162.712 C116.765999,162.832001 116.476002,162.93 116.144,163.006 C115.811998,163.082 115.474002,163.12 115.13,163.12 C114.673998,163.12 114.276002,163.044001 113.936,162.892 C113.595998,162.739999 113.314001,162.530001 113.09,162.262 C112.865999,161.993999 112.698001,161.678002 112.586,161.314 C112.473999,160.949998 112.418,160.560002 112.418,160.144 C112.418,159.711998 112.475999,159.314002 112.592,158.95 C112.708001,158.585998 112.873999,158.270001 113.09,158.002 C113.306001,157.733999 113.569998,157.526001 113.882,157.378 C114.194002,157.229999 114.545998,157.156 114.938,157.156 L114.938,157.156 Z M114.902,157.768 C114.637999,157.768 114.404001,157.823999 114.2,157.936 C113.995999,158.048001 113.824001,158.193999 113.684,158.374 C113.543999,158.554001 113.436,158.757999 113.36,158.986 C113.284,159.214001 113.242,159.447999 113.234,159.688 L116.306,159.688 C116.354,159.135997 116.262001,158.678002 116.03,158.314 C115.797999,157.949998 115.422003,157.768 114.902,157.768 L114.902,157.768 Z M123.53,160.144 C123.53,160.536002 123.472001,160.911998 123.356,161.272 C123.239999,161.632002 123.068001,161.947999 122.84,162.22 C122.611999,162.492001 122.330002,162.709999 121.994,162.874 C121.657998,163.038001 121.274002,163.12 120.842,163.12 C120.409998,163.12 120.026002,163.038001 119.69,162.874 C119.353998,162.709999 119.072001,162.492001 118.844,162.22 C118.615999,161.947999 118.444001,161.632002 118.328,161.272 C118.211999,160.911998 118.154,160.536002 118.154,160.144 C118.154,159.751998 118.211999,159.374002 118.328,159.01 C118.444001,158.645998 118.615999,158.328001 118.844,158.056 C119.072001,157.783999 119.353998,157.566001 119.69,157.402 C120.026002,157.237999 120.409998,157.156 120.842,157.156 C121.274002,157.156 121.657998,157.237999 121.994,157.402 C122.330002,157.566001 122.611999,157.783999 122.84,158.056 C123.068001,158.328001 123.239999,158.645998 123.356,159.01 C123.472001,159.374002 123.53,159.751998 123.53,160.144 L123.53,160.144 Z M122.726,160.144 C122.726,159.823998 122.686,159.520001 122.606,159.232 C122.526,158.943999 122.408001,158.696001 122.252,158.488 C122.095999,158.279999 121.900001,158.114001 121.664,157.99 C121.427999,157.865999 121.154002,157.804 120.842,157.804 C120.529998,157.804 120.256001,157.865999 120.02,157.99 C119.783999,158.114001 119.588001,158.279999 119.432,158.488 C119.275999,158.696001 119.158,158.943999 119.078,159.232 C118.998,159.520001 118.958,159.823998 118.958,160.144 C118.958,160.472002 118.998,160.775999 119.078,161.056 C119.158,161.336001 119.275999,161.581999 119.432,161.794 C119.588001,162.006001 119.783999,162.171999 120.02,162.292 C120.256001,162.412001 120.529998,162.472 120.842,162.472 C121.154002,162.472 121.427999,162.412001 121.664,162.292 C121.900001,162.171999 122.095999,162.006001 122.252,161.794 C122.408001,161.581999 122.526,161.336001 122.606,161.056 C122.686,160.775999 122.726,160.472002 122.726,160.144 L122.726,160.144 Z M125.03,157.276 L125.786,157.276 L125.786,158.068 C125.994001,157.819999 126.249998,157.606001 126.554,157.426 C126.858002,157.245999 127.233998,157.156 127.682,157.156 C128.050002,157.156 128.373999,157.231999 128.654,157.384 C128.934001,157.536001 129.167999,157.743999 129.356,158.008 C129.544001,158.272001 129.684,158.581998 129.776,158.938 C129.868,159.294002 129.914,159.679998 129.914,160.096 C129.914,160.560002 129.846001,160.977998 129.71,161.35 C129.573999,161.722002 129.380001,162.039999 129.128,162.304 C128.875999,162.568001 128.572002,162.769999 128.216,162.91 C127.859998,163.050001 127.462002,163.12 127.022,163.12 C126.781999,163.12 126.570001,163.106 126.386,163.078 C126.201999,163.05 126.018001,163.008 125.834,162.952 L125.834,165.472 L125.03,165.472 L125.03,157.276 Z M127.49,157.816 C127.137998,157.816 126.820001,157.913999 126.536,158.11 C126.251999,158.306001 126.018001,158.511999 125.834,158.728 L125.834,162.28 C125.994001,162.344 126.167999,162.39 126.356,162.418 C126.544001,162.446 126.741999,162.46 126.95,162.46 C127.654004,162.46 128.189998,162.256002 128.558,161.848 C128.926002,161.439998 129.11,160.856004 129.11,160.096 C129.11,159.759998 129.078,159.452001 129.014,159.172 C128.95,158.891999 128.852001,158.652001 128.72,158.452 C128.587999,158.251999 128.420001,158.096001 128.216,157.984 C128.011999,157.871999 127.770001,157.816 127.49,157.816 L127.49,157.816 Z" id="—-Joy-Neop" sketch:type="MSShapeGroup"></path>
        </g>
    </g>
</svg>