<?xml version="1.0" encoding="UTF-8" standalone="no"?>
<svg width="400px" height="400px" viewBox="0 0 400 400" version="1.1" xmlns="http://www.w3.org/2000/svg" xmlns:xlink="http://www.w3.org/1999/xlink">
    <!-- Generator: Sketch 3.8.1 (29687) - http://www.bohemiancoding.com/sketch -->
    <title>go-home-youre-drunk--201602001</title>
    <desc>Created with Sketch.</desc>
    <defs></defs>
    <g id="Page-1" stroke="none" stroke-width="1" fill="none" fill-rule="evenodd">
        <g id="go-home-youre-drunk--201602001" fill="#FFFFFF">
            <path d="M156.38,316.768 L156.38,320 L155.34,320 L155.34,316.768 L150.844,316.768 L150.7,315.92 L155.26,309.344 L156.38,309.344 L156.38,315.888 L157.852,315.888 L157.852,316.768 L156.38,316.768 Z M155.34,310.704 L151.804,315.888 L155.34,315.888 L155.34,310.704 Z M166.892,314.672 C166.892,315.440004 166.817334,316.15733 166.668,316.824 C166.518666,317.49067 166.292002,318.074664 165.988,318.576 C165.683998,319.077336 165.294669,319.471999 164.82,319.76 C164.345331,320.048001 163.78267,320.192 163.132,320.192 C162.48133,320.192 161.918669,320.048001 161.444,319.76 C160.969331,319.471999 160.580002,319.077336 160.276,318.576 C159.971998,318.074664 159.745334,317.49067 159.596,316.824 C159.446666,316.15733 159.372,315.440004 159.372,314.672 C159.372,313.903996 159.446666,313.18667 159.596,312.52 C159.745334,311.85333 159.971998,311.269336 160.276,310.768 C160.580002,310.266664 160.969331,309.872001 161.444,309.584 C161.918669,309.295999 162.48133,309.152 163.132,309.152 C163.78267,309.152 164.345331,309.295999 164.82,309.584 C165.294669,309.872001 165.683998,310.266664 165.988,310.768 C166.292002,311.269336 166.518666,311.85333 166.668,312.52 C166.817334,313.18667 166.892,313.903996 166.892,314.672 L166.892,314.672 Z M163.132,319.312 C163.622669,319.312 164.038665,319.194668 164.38,318.96 C164.721335,318.725332 164.998666,318.400002 165.212,317.984 C165.425334,317.567998 165.58,317.077336 165.676,316.512 C165.772,315.946664 165.82,315.333337 165.82,314.672 C165.82,314.02133 165.772,313.413336 165.676,312.848 C165.58,312.282664 165.425334,311.792002 165.212,311.376 C164.998666,310.959998 164.721335,310.632001 164.38,310.392 C164.038665,310.151999 163.622669,310.032 163.132,310.032 C162.641331,310.032 162.225335,310.151999 161.884,310.392 C161.542665,310.632001 161.265334,310.959998 161.052,311.376 C160.838666,311.792002 160.684,312.282664 160.588,312.848 C160.492,313.413336 160.444,314.02133 160.444,314.672 C160.444,315.333337 160.492,315.946664 160.588,316.512 C160.684,317.077336 160.838666,317.567998 161.052,317.984 C161.265334,318.400002 161.542665,318.725332 161.884,318.96 C162.225335,319.194668 162.641331,319.312 163.132,319.312 L163.132,319.312 Z M174.124,316.768 L174.124,320 L173.084,320 L173.084,316.768 L168.588,316.768 L168.444,315.92 L173.004,309.344 L174.124,309.344 L174.124,315.888 L175.596,315.888 L175.596,316.768 L174.124,316.768 Z M173.084,310.704 L169.548,315.888 L173.084,315.888 L173.084,310.704 Z M188.364,320 L182.044,311.088 L182.044,320 L181.004,320 L181.004,309.344 L182.044,309.344 L188.364,318.256 L188.364,309.344 L189.404,309.344 L189.404,320 L188.364,320 Z M198.652,316.192 C198.652,316.714669 198.574667,317.215998 198.42,317.696 C198.265333,318.176002 198.036002,318.597332 197.732,318.96 C197.427998,319.322668 197.052002,319.613332 196.604,319.832 C196.155998,320.050668 195.644003,320.16 195.068,320.16 C194.491997,320.16 193.980002,320.050668 193.532,319.832 C193.083998,319.613332 192.708002,319.322668 192.404,318.96 C192.099998,318.597332 191.870667,318.176002 191.716,317.696 C191.561333,317.215998 191.484,316.714669 191.484,316.192 C191.484,315.669331 191.561333,315.165336 191.716,314.68 C191.870667,314.194664 192.099998,313.770668 192.404,313.408 C192.708002,313.045332 193.083998,312.754668 193.532,312.536 C193.980002,312.317332 194.491997,312.208 195.068,312.208 C195.644003,312.208 196.155998,312.317332 196.604,312.536 C197.052002,312.754668 197.427998,313.045332 197.732,313.408 C198.036002,313.770668 198.265333,314.194664 198.42,314.68 C198.574667,315.165336 198.652,315.669331 198.652,316.192 L198.652,316.192 Z M197.58,316.192 C197.58,315.765331 197.526667,315.360002 197.42,314.976 C197.313333,314.591998 197.156001,314.261335 196.948,313.984 C196.739999,313.706665 196.478668,313.485334 196.164,313.32 C195.849332,313.154666 195.484002,313.072 195.068,313.072 C194.651998,313.072 194.286668,313.154666 193.972,313.32 C193.657332,313.485334 193.396001,313.706665 193.188,313.984 C192.979999,314.261335 192.822667,314.591998 192.716,314.976 C192.609333,315.360002 192.556,315.765331 192.556,316.192 C192.556,316.629336 192.609333,317.034665 192.716,317.408 C192.822667,317.781335 192.979999,318.109332 193.188,318.392 C193.396001,318.674668 193.657332,318.895999 193.972,319.056 C194.286668,319.216001 194.651998,319.296 195.068,319.296 C195.484002,319.296 195.849332,319.216001 196.164,319.056 C196.478668,318.895999 196.739999,318.674668 196.948,318.392 C197.156001,318.109332 197.313333,317.781335 197.42,317.408 C197.526667,317.034665 197.58,316.629336 197.58,316.192 L197.58,316.192 Z M199.772,312.368 L201.164,312.368 L201.164,310.336 L202.236,310.336 L202.236,312.368 L204.828,312.368 L204.828,313.248 L202.236,313.248 L202.236,317.488 C202.236,317.776001 202.252,318.031999 202.284,318.256 C202.316,318.480001 202.38,318.669333 202.476,318.824 C202.572,318.978667 202.702666,319.093333 202.868,319.168 C203.033334,319.242667 203.249332,319.28 203.516,319.28 C203.740001,319.28 203.961332,319.258667 204.18,319.216 C204.398668,319.173333 204.598666,319.12 204.78,319.056 L204.876,319.872 C204.715999,319.946667 204.486668,320.013333 204.188,320.072 C203.889332,320.130667 203.601335,320.16 203.324,320.16 C202.918665,320.16 202.580001,320.093334 202.308,319.96 C202.035999,319.826666 201.814668,319.640001 201.644,319.4 C201.473332,319.159999 201.350667,318.874668 201.276,318.544 C201.201333,318.213332 201.164,317.856002 201.164,317.472 L201.164,313.248 L199.772,313.248 L199.772,312.368 Z M210.252,320 L210.252,309.344 L215.98,309.344 L215.98,310.256 L211.34,310.256 L211.34,314.32 L215.788,314.32 L215.788,315.232 L211.34,315.232 L211.34,320 L210.252,320 Z M224.46,316.192 C224.46,316.714669 224.382667,317.215998 224.228,317.696 C224.073333,318.176002 223.844002,318.597332 223.54,318.96 C223.235998,319.322668 222.860002,319.613332 222.412,319.832 C221.963998,320.050668 221.452003,320.16 220.876,320.16 C220.299997,320.16 219.788002,320.050668 219.34,319.832 C218.891998,319.613332 218.516002,319.322668 218.212,318.96 C217.907998,318.597332 217.678667,318.176002 217.524,317.696 C217.369333,317.215998 217.292,316.714669 217.292,316.192 C217.292,315.669331 217.369333,315.165336 217.524,314.68 C217.678667,314.194664 217.907998,313.770668 218.212,313.408 C218.516002,313.045332 218.891998,312.754668 219.34,312.536 C219.788002,312.317332 220.299997,312.208 220.876,312.208 C221.452003,312.208 221.963998,312.317332 222.412,312.536 C222.860002,312.754668 223.235998,313.045332 223.54,313.408 C223.844002,313.770668 224.073333,314.194664 224.228,314.68 C224.382667,315.165336 224.46,315.669331 224.46,316.192 L224.46,316.192 Z M223.388,316.192 C223.388,315.765331 223.334667,315.360002 223.228,314.976 C223.121333,314.591998 222.964001,314.261335 222.756,313.984 C222.547999,313.706665 222.286668,313.485334 221.972,313.32 C221.657332,313.154666 221.292002,313.072 220.876,313.072 C220.459998,313.072 220.094668,313.154666 219.78,313.32 C219.465332,313.485334 219.204001,313.706665 218.996,313.984 C218.787999,314.261335 218.630667,314.591998 218.524,314.976 C218.417333,315.360002 218.364,315.765331 218.364,316.192 C218.364,316.629336 218.417333,317.034665 218.524,317.408 C218.630667,317.781335 218.787999,318.109332 218.996,318.392 C219.204001,318.674668 219.465332,318.895999 219.78,319.056 C220.094668,319.216001 220.459998,319.296 220.876,319.296 C221.292002,319.296 221.657332,319.216001 221.972,319.056 C222.286668,318.895999 222.547999,318.674668 222.756,318.392 C222.964001,318.109332 223.121333,317.781335 223.228,317.408 C223.334667,317.034665 223.388,316.629336 223.388,316.192 L223.388,316.192 Z M232.46,312.368 L232.46,320 L231.452,320 L231.452,318.896 C231.142665,319.301335 230.777335,319.613332 230.356,319.832 C229.934665,320.050668 229.457336,320.16 228.924,320.16 C228.465331,320.16 228.070668,320.058668 227.74,319.856 C227.409332,319.653332 227.140001,319.381335 226.932,319.04 C226.723999,318.698665 226.569334,318.301336 226.468,317.848 C226.366666,317.394664 226.316,316.917336 226.316,316.416 L226.316,312.368 L227.388,312.368 L227.388,316.336 C227.388,316.784002 227.417333,317.189332 227.476,317.552 C227.534667,317.914668 227.635999,318.221332 227.78,318.472 C227.924001,318.722668 228.113332,318.917333 228.348,319.056 C228.582668,319.194667 228.881332,319.264 229.244,319.264 C229.692002,319.264 230.099998,319.144001 230.468,318.904 C230.836002,318.663999 231.142665,318.389335 231.388,318.08 L231.388,312.368 L232.46,312.368 Z M235.02,320 L235.02,312.368 L236.028,312.368 L236.028,313.472 C236.337335,313.066665 236.702665,312.754668 237.124,312.536 C237.545335,312.317332 238.022664,312.208 238.556,312.208 C239.025336,312.208 239.427998,312.309332 239.764,312.512 C240.100002,312.714668 240.377332,312.986665 240.596,313.328 C240.814668,313.669335 240.974666,314.066664 241.076,314.52 C241.177334,314.973336 241.228,315.450664 241.228,315.952 L241.228,320 L240.156,320 L240.156,316.032 C240.156,315.605331 240.124,315.213335 240.06,314.856 C239.996,314.498665 239.889334,314.189335 239.74,313.928 C239.590666,313.666665 239.393335,313.464001 239.148,313.32 C238.902665,313.175999 238.598668,313.104 238.236,313.104 C237.787998,313.104 237.380002,313.223999 237.012,313.464 C236.643998,313.704001 236.337335,313.978665 236.092,314.288 L236.092,320 L235.02,320 Z M249.66,320 L248.652,320 L248.652,318.896 C248.406665,319.226668 248.065336,319.519999 247.628,319.776 C247.190664,320.032001 246.67867,320.16 246.092,320.16 C245.622664,320.16 245.206668,320.061334 244.844,319.864 C244.481332,319.666666 244.174668,319.394668 243.924,319.048 C243.673332,318.701332 243.481334,318.288002 243.348,317.808 C243.214666,317.327998 243.148,316.805336 243.148,316.24 C243.148,315.610664 243.241332,315.048002 243.428,314.552 C243.614668,314.055998 243.878665,313.634668 244.22,313.288 C244.561335,312.941332 244.969331,312.674668 245.444,312.488 C245.918669,312.301332 246.438664,312.208 247.004,312.208 C247.324002,312.208 247.606665,312.226666 247.852,312.264 C248.097335,312.301334 248.342665,312.357333 248.588,312.432 L248.588,308.704 L249.66,308.704 L249.66,320 Z M246.38,319.28 C246.881336,319.28 247.313332,319.149335 247.676,318.888 C248.038668,318.626665 248.342665,318.352001 248.588,318.064 L248.588,313.328 C248.374666,313.242666 248.142668,313.181334 247.892,313.144 C247.641332,313.106666 247.377335,313.088 247.1,313.088 C246.683998,313.088 246.300002,313.151999 245.948,313.28 C245.595998,313.408001 245.292001,313.605332 245.036,313.872 C244.779999,314.138668 244.580001,314.469331 244.436,314.864 C244.291999,315.258669 244.22,315.717331 244.22,316.24 C244.22,317.157338 244.390665,317.893331 244.732,318.448 C245.073335,319.002669 245.622663,319.28 246.38,319.28 L246.38,319.28 Z" id="404-Not-Found"></path>
            <path d="M98.1898937,126.802627 L87.9366109,126.085648 L88.1869576,122.505523 C88.3447734,120.248653 88.3461312,118.829289 88.1910313,118.247388 C88.0359314,117.665487 87.5930674,117.348995 86.862426,117.297904 C86.2292034,117.253624 85.7819131,117.467081 85.5205415,117.93828 C85.2591699,118.40948 85.0580945,119.651722 84.9173092,121.665045 L83.594048,140.588562 C83.4702932,142.358338 83.5024856,143.531235 83.6906262,144.107288 C83.8787667,144.683342 84.3137965,144.995207 84.9957284,145.042892 C85.7426063,145.095119 86.2721278,144.813992 86.5843089,144.199503 C86.89649,143.585014 87.1167253,142.360427 87.2450216,140.525705 L87.572005,135.849624 L85.5018648,135.704865 L85.9208124,129.713636 L97.9276258,130.553234 L96.4476849,151.717374 L89.9937183,151.266069 L89.2414418,148.374517 C88.458121,149.543432 87.5134421,150.395128 86.4073768,150.929629 C85.3013114,151.464131 84.0257748,151.680854 82.5807285,151.579807 C80.8596621,151.459458 79.2774513,150.928692 77.8340487,149.987492 C76.390646,149.046293 75.3224291,147.931475 74.6293661,146.643005 C73.936303,145.354535 73.53976,144.025635 73.4397253,142.656265 C73.3396906,141.286895 73.3844755,139.246495 73.5740815,136.535004 L74.3932432,124.820445 C74.6566479,121.053583 75.0509069,118.33197 75.5760321,116.655524 C76.1011573,114.979078 77.3753841,113.497802 79.3987509,112.211652 C81.4221176,110.925501 83.9599916,110.389158 87.0124489,110.602606 C90.0161969,110.812649 92.4653152,111.603901 94.3598774,112.976388 C96.2544397,114.348875 97.442755,115.904455 97.9248589,117.643175 C98.4069629,119.381895 98.5350441,121.866747 98.3091065,125.097806 L98.1898937,126.802627 Z M107.275,132.3 C107.275,142.65 115.625,151 125.975,151 C136.325,151 144.725,142.65 144.725,132.3 C144.725,121.95 136.325,113.5 125.975,113.5 C115.625,113.5 107.275,121.95 107.275,132.3 Z M134.925,132.25 C134.925,137.15 130.925,141.2 125.975,141.2 C121.075,141.2 117.075,137.15 117.075,132.25 C117.075,127.3 121.075,123.3 125.975,123.3 C130.925,123.3 134.925,127.3 134.925,132.25 Z M193.806982,148.271166 L192.390622,134.795394 L180.257455,136.070642 L181.673815,149.546413 L173.518736,150.403547 L170.037938,117.285967 L178.193018,116.428834 L179.557114,129.407345 L191.690281,128.132098 L190.326185,115.153587 L198.481264,114.296453 L201.962062,147.414033 L193.806982,148.271166 Z M247.75,132.75 C247.75,130.349988 247.333337,128.050011 246.5,125.85 C245.666663,123.649989 244.466675,121.708342 242.9,120.025 C241.333326,118.341658 239.425011,117.000005 237.175,116 C234.924989,114.999995 232.383347,114.5 229.55,114.5 C226.949987,114.5 224.475012,114.924996 222.125,115.775 C219.774988,116.625004 217.725009,117.841659 215.975,119.425 C214.224991,121.008341 212.833338,122.941655 211.8,125.225 C210.766661,127.508345 210.25,130.083319 210.25,132.95 C210.25,135.650014 210.741662,138.124989 211.725,140.375 C212.708338,142.625011 214.049992,144.558325 215.75,146.175 C217.450008,147.791675 219.433322,149.041662 221.7,149.925 C223.966678,150.808338 226.366654,151.25 228.9,151.25 C231.466679,151.25 233.891655,150.800005 236.175,149.9 C238.458345,148.999996 240.458325,147.716675 242.175,146.05 C243.891675,144.383325 245.249995,142.416678 246.25,140.15 C247.250005,137.883322 247.75,135.41668 247.75,132.75 Z M241.55,132.8 C241.55,134.900011 241.291669,136.999989 240.775,139.1 C240.258331,141.20001 239.483339,143.091658 238.45,144.775 C237.416662,146.458342 236.125008,147.833328 234.575,148.9 C233.024992,149.966672 231.200011,150.5 229.1,150.5 C226.99999,150.5 225.158341,150.016671 223.575,149.05 C221.991659,148.083328 220.675005,146.800008 219.625,145.2 C218.574995,143.599992 217.783336,141.75001 217.25,139.65 C216.716664,137.549989 216.45,135.366678 216.45,133.1 C216.45,130.933322 216.691664,128.791677 217.175,126.675 C217.658336,124.558323 218.408328,122.666675 219.425,121 C220.441672,119.333325 221.741659,117.975005 223.325,116.925 C224.908341,115.874995 226.783323,115.35 228.95,115.35 C231.083344,115.35 232.933326,115.874995 234.5,116.925 C236.066675,117.975005 237.374995,119.341658 238.425,121.025 C239.475005,122.708342 240.258331,124.583323 240.775,126.65 C241.291669,128.716677 241.55,130.766657 241.55,132.8 Z M288.6,159.95 L288.6,123.75 L280.85,115.4 L279.95,115.4 L274,122.1 L268.1,115.4 L254.1,115.4 L254.1,116 L259.45,122.15 L259.45,151 L268.1,151 L268.1,128.6 L274,135.1 L279.95,128.6 L279.95,152.25 L288.6,159.95 Z M315.504685,136.51158 C315.539415,136.708543 315.49739,136.902112 315.37861,137.092295 C315.259829,137.282478 315.10196,137.394933 314.904998,137.429663 L312.541459,137.846418 C312.344496,137.881148 312.159133,137.837676 311.985364,137.716002 C311.811595,137.594327 311.707347,137.435011 311.672617,137.238048 L311.290591,135.071471 L304.446177,136.278326 L306.616779,148.588423 L320.69953,146.105254 L319.990547,141.508533 C319.955817,141.311571 319.999289,141.126208 320.120964,140.952438 C320.242638,140.778669 320.401954,140.674421 320.598917,140.639691 L323.060936,140.205571 C323.257899,140.170841 323.443262,140.214313 323.617031,140.335987 C323.7908,140.457662 323.895048,140.616978 323.929778,140.813941 L325.171363,147.855316 C325.206092,148.052279 325.162621,148.237642 325.040946,148.411411 C324.919272,148.58518 324.759955,148.689428 324.562993,148.724158 L300.287482,153.004586 C300.090519,153.039315 299.905156,152.995844 299.731387,152.874169 C299.557618,152.752495 299.45337,152.593178 299.41864,152.396216 L299.114755,150.672802 C299.080026,150.47584 299.123497,150.290477 299.245172,150.116707 C299.366846,149.942938 299.526163,149.83869 299.723125,149.80396 L302.382106,149.33511 L297.424451,121.218849 L294.76547,121.687699 C294.568507,121.722429 294.381697,121.67075 294.205034,121.532662 C294.02837,121.394574 293.922675,121.227052 293.887945,121.030089 L293.601426,119.405156 C293.566696,119.208194 293.610168,119.022831 293.731842,118.849061 C293.853517,118.675292 294.012833,118.571044 294.209796,118.536314 L318.386826,114.273251 C318.583788,114.238522 318.769152,114.281993 318.942921,114.403668 C319.11669,114.525342 319.220938,114.684659 319.255668,114.881621 L320.618806,122.612362 C320.653536,122.809325 320.610064,122.994688 320.48839,123.168457 C320.366715,123.342226 320.207399,123.446474 320.010436,123.481204 L317.597657,123.906642 C317.400695,123.941372 317.215332,123.8979 317.041562,123.776226 C316.867793,123.654551 316.763545,123.495235 316.728815,123.298272 L315.643394,118.006358 L301.659124,120.472162 L303.890503,133.126941 L310.734917,131.920087 L310.318161,129.556548 C310.283431,129.359585 310.326903,129.174222 310.448578,129.000453 C310.570252,128.826684 310.729568,128.722436 310.926531,128.687706 L313.29007,128.27095 C313.487032,128.236221 313.673842,128.287899 313.850506,128.425987 C314.027169,128.564075 314.132864,128.731598 314.167594,128.92856 L315.504685,136.51158 Z M30.3,218.7 L33.8,218.3 C34,217 34,215.05 33.8,213.5 L20.2,213.5 C20,215.05 20,217 20.2,218.3 L22.5,218.6 L18.7,227.95 L18.45,230.8 L18.35,230.8 L18.15,227.95 L14.25,218.7 L16.45,218.3 C16.7,217 16.7,215.05 16.45,213.5 L2.25,213.5 C2,215.05 2,217 2.25,218.3 L6,218.75 L14.15,235.4 L14.15,241.7 L10.95,242.2 C10.75,243.5 10.75,245.45 10.95,247 L25.15,247 C25.4,245.45 25.4,243.5 25.15,242.2 L22.15,241.7 L22.15,235.4 L30.3,218.7 Z M53.8657227,216.430664 C59.1391865,216.235351 63.4238116,217.773421 66.7197266,221.044922 C70.0156415,224.316423 71.6635742,228.409806 71.6635742,233.325195 C71.6635742,237.524435 70.4347454,241.21906 67.9770508,244.40918 C64.7218262,248.640972 60.1238904,250.756836 54.1831055,250.756836 C48.2260444,250.756836 43.6199707,248.738627 40.3647461,244.702148 C37.7931187,241.512028 36.5073242,237.727886 36.5073242,233.349609 C36.5073242,228.43422 38.1796708,224.336768 41.5244141,221.057129 C44.8691573,217.77749 48.9828857,216.235351 53.8657227,216.430664 Z M54.1586914,217.993164 C51.1313325,217.993164 48.8282957,219.539373 47.2495117,222.631836 C45.963698,225.170911 45.3208008,228.816708 45.3208008,233.569336 C45.3208008,239.217151 46.3136294,243.391914 48.2993164,246.09375 C49.6827869,247.98178 51.6196165,248.925781 54.1098633,248.925781 C55.786304,248.925781 57.1860295,248.518884 58.309082,247.705078 C59.7413809,246.663406 60.8562786,244.999198 61.6538086,242.712402 C62.4513386,240.425607 62.8500977,237.443052 62.8500977,233.764648 C62.8500977,229.386371 62.4432007,226.110851 61.6293945,223.937988 C60.8155884,221.765126 59.7780011,220.231124 58.5166016,219.335938 C57.255202,218.440751 55.8025798,217.993164 54.1586914,217.993164 Z M96.4465113,208.633328 C95.8497981,208.696045 95.4493011,209.190618 95.5120182,209.787331 L98.2088525,235.445996 C98.2402111,235.744353 98.166891,236.003436 97.9888923,236.223246 L97.899893,236.333151 C97.7218943,236.552961 97.4837167,236.678546 97.1853601,236.709904 L89.0302805,237.567037 C88.731924,237.598396 88.4728407,237.525076 88.2530306,237.347077 L88.1431255,237.258078 C87.9233155,237.080079 87.7977312,236.841902 87.7663726,236.543545 L85.0695383,210.88488 C85.0068212,210.288167 84.5122485,209.88767 83.9155354,209.950387 L79.0423781,210.462576 C78.445665,210.525294 78.0451679,211.019866 78.107885,211.616579 L81.3169088,242.148402 C81.3482674,242.446758 81.4738517,242.684936 81.6936617,242.862934 L84.1115725,244.82092 C84.3313826,244.998919 84.5904659,245.072239 84.8888225,245.04088 L102.790217,243.159368 C103.088573,243.128009 103.326751,243.002425 103.504749,242.782615 L105.462735,240.364704 C105.640734,240.144894 105.714054,239.885811 105.682695,239.587454 L102.473671,209.055632 C102.410954,208.458919 101.916382,208.058422 101.319669,208.121139 L96.4465113,208.633328 Z M117.875,223.65 C119.025,217.6 119.825,212.05 119.825,209.8 L114.175,209.8 C114.175,212 114.775,217.6 115.925,223.65 L117.875,223.65 Z M139.225,233.65 C140.025,233.75 141.025,233.8 142.025,233.8 C146.075,241.75 148.375,245.6 150.525,247.35 C152.875,249.3 155.825,250.4 161.275,250.4 L161.525,248.75 C160.375,248.15 158.375,246.75 155.875,243.55 C153.825,241 151.875,237.25 149.375,232.9 C154.275,231.2 156.375,227.85 156.375,224.2 C156.375,216.7 149.975,214.7 142.475,214.7 C141.325,214.7 136.925,214.75 135.525,214.75 C133.325,214.75 129.175,214.7 128.175,214.65 L128.175,216.6 C130.125,216.75 131.125,216.9 131.675,217.75 C132.025,218.3 132.125,219.4 132.125,221.1 L132.125,243.75 C132.125,245.35 131.975,246.45 131.675,246.95 C131.375,247.5 130.775,247.95 128.175,248.1 L128.175,250.05 C129.675,250 133.525,249.9 135.625,249.9 C137.625,249.9 142.425,250 143.825,250.05 L143.825,248.1 C141.125,247.85 140.175,247.4 139.825,246.9 C139.475,246.4 139.225,245.85 139.225,243.7 L139.225,233.65 Z M142.225,231.8 C140.925,231.8 140.075,231.7 139.225,231.6 L139.225,216.95 C139.775,216.9 140.675,216.85 141.375,216.85 C145.175,216.85 148.775,218.6 148.775,224.35 C148.775,229.35 146.675,231.8 142.225,231.8 Z M188.6,212 C188.566667,213.33334 188.508334,214.674993 188.425,216.025 C188.341666,217.375007 188.216668,218.733327 188.05,220.1 L186.75,220.1 L184.7,214.6 L173.8,214.6 L173.8,227.85 L181.95,227.85 L183.9,224.15 L185.15,224.15 C185.350001,227.450017 185.350001,230.816649 185.15,234.25 L183.9,234.25 L181.95,230.45 L173.8,230.45 L173.8,244.4 L185.3,244.4 L187.75,238.4 L189,238.4 C189.233335,239.800007 189.4,241.216659 189.5,242.65 C189.600001,244.08334 189.616667,245.533326 189.55,247 L164.9,247 L164.9,245.55 C166.066673,245.016664 167.433326,244.616668 169,244.35 L169,214.7 C168.33333,214.566666 167.650004,214.391668 166.95,214.175 C166.249997,213.958332 165.56667,213.716668 164.9,213.45 L164.9,212 L188.6,212 Z M214.181149,245.003716 C213.235227,244.837418 212.491048,244.385857 211.948592,243.649019 C211.406135,242.912182 211.206202,242.093655 211.348786,241.193414 C211.6034,239.58584 212.061675,237.18661 212.723624,233.995651 C213.385573,230.804692 213.843848,228.405461 214.098463,226.797887 C214.381085,225.013481 214.768842,222.331182 215.261746,218.750911 C215.754649,215.170639 216.142407,212.488341 216.425029,210.703934 C216.565067,209.819768 217.130467,209.007107 218.121246,208.265925 C219.112025,207.524743 220.089672,207.230541 221.054216,207.38331 C221.584716,207.467332 222.840052,208.177 224.820264,209.512333 C227.123589,211.09659 228.496871,211.997965 228.940152,212.216485 C233.408459,214.489701 237.053055,217.489326 239.874049,221.21545 C243.24132,225.654298 244.559563,230.180522 243.828819,234.794259 C243.388335,237.575361 242.286292,240.111571 240.522656,242.402963 C238.751381,244.742583 236.553957,246.495587 233.930317,247.662028 C230.986761,248.975547 227.095643,249.249108 222.256846,248.482718 C221.083317,248.296849 219.75971,247.914183 218.285984,247.334709 C216.503474,246.623933 215.135209,245.846943 214.181149,245.003716 Z M231.659066,222.361445 C230.255034,221.133849 227.155758,219.06101 222.361143,216.142868 L218.580134,240.015218 C219.143434,240.516411 219.815073,240.931765 220.595071,241.261292 C221.375069,241.590819 222.263402,241.83451 223.260098,241.992371 C226.732457,242.542339 229.300542,242.454721 230.96443,241.729514 C232.540301,241.039804 233.874966,239.97409 234.968464,238.532341 C236.061963,237.090591 236.743648,235.517726 237.013539,233.813698 C237.644984,229.826915 235.860177,226.009536 231.659066,222.361445 Z M282.375,250.05 C282.375,251.916676 281.158345,252.85 278.725,252.85 C275.658318,252.85 273.208342,251.883343 271.375,249.95 C269.94166,248.449993 269.125001,246.850009 268.925,245.15 L268.425,241.05 C268.091665,238.449987 267.483338,236.633339 266.6,235.6 C265.716662,234.566662 264.291676,234.066666 262.325,234.1 L262.325,245.45 C262.325,248.083347 262.341666,249.499999 262.375,249.7 C262.375,250.26667 262.608331,250.658332 263.075,250.875 C263.541669,251.091668 264.424994,251.2 265.725,251.2 C266.525004,251.2 266.925,251.349999 266.925,251.65 C266.925,251.916668 266.725002,252.05 266.325,252.05 L261.475,252 L260.675,252 C260.074997,252.033334 259.508336,252.05 258.975,252.05 L255.375,252.05 C255.041665,252.05 254.658335,252.033334 254.225,252 L253.525,252 L251.225,252.05 C250.758331,252.05 250.525,251.916668 250.525,251.65 C250.525,251.349999 251.208326,251.166667 252.575,251.1 C253.708339,251.033333 254.374999,250.766669 254.575,250.3 C254.675,250.066665 254.725,249.366672 254.725,248.2 L254.725,222.45 C254.725,220.716658 254.691667,219.691668 254.625,219.375 C254.558333,219.058332 254.341668,218.816667 253.975,218.65 C253.508331,218.449999 252.758338,218.35 251.725,218.35 C250.991663,218.35 250.625,218.200001 250.625,217.9 C250.625,217.666666 250.774998,217.525 251.075,217.475 C251.375001,217.425 252.174993,217.4 253.475,217.4 L254.375,217.4 C254.975003,217.433334 255.55833,217.45 256.125,217.45 L257.775,217.45 C257.808334,217.45 258.15833,217.433334 258.825,217.4 L260.625,217.4 L263.525,217.4 C268.19169,217.4 271.374991,217.766663 273.075,218.5 C274.40834,219.066669 275.474996,219.933328 276.275,221.1 C277.075004,222.266673 277.475,223.549993 277.475,224.95 C277.475,228.150016 275.80835,230.516659 272.475,232.05 C271.008326,232.71667 268.841681,233.216665 265.975,233.55 L265.925,233.85 C269.558351,234.083335 272.191659,235.041658 273.825,236.725 C275.458341,238.408342 276.441665,241.133314 276.775,244.9 C277.041668,247.900015 277.45833,249.774996 278.025,250.525 C278.591669,251.275004 279.174997,251.65 279.775,251.65 C280.275003,251.65 280.525,251.516668 280.525,251.25 C280.525,251.116666 280.333335,250.933335 279.95,250.7 C279.566665,250.466666 279.375,250.133335 279.375,249.7 C279.375,248.799996 279.874995,248.35 280.875,248.35 C281.875005,248.35 282.375,248.916661 282.375,250.05 Z M269.725,224.8 C269.725,220.499979 268.025017,218.35 264.625,218.35 C263.524994,218.35 262.841668,218.716663 262.575,219.45 C262.408332,219.916669 262.325,221.733318 262.325,224.9 L262.325,233.2 C264.925013,233.233334 266.808327,232.58334 267.975,231.25 C269.141672,229.91666 269.725,227.766682 269.725,224.8 Z M302.95,236.45 C300.35,236.45 297.6,235.05 297.6,232.2 L297.6,209 L289.15,209 L289.15,232.35 C289.15,240.05 295.8,244.5 302.95,244.5 C310.15,244.5 316.75,240.05 316.75,232.35 L316.75,209 L308.25,209 L308.25,232.2 C308.25,235.05 305.55,236.45 302.95,236.45 Z M302.95,240.75 C297.95,240.75 293.05,237.65 293.05,232.2 L293.05,212.35 L293.6,212.35 L293.6,232.2 C293.6,237.4 298.2,240.2 302.95,240.2 C307.7,240.2 312.3,237.4 312.3,232.2 L312.3,212.35 L312.85,212.35 L312.85,232.2 C312.85,237.65 307.95,240.75 302.95,240.75 Z M349.993812,214.101889 C349.826566,212.510654 345.908658,213.022993 346.091582,214.763407 C346.964395,223.067664 349.06408,234.913078 349.767259,240.168365 C346.109185,235.977781 340.030661,229.326725 337.361582,226.892384 C334.472693,224.280044 329.684059,219.856359 327.067394,216.964031 C325.790645,214.38335 323.461283,215.181206 323.518474,217.63869 C323.47905,218.698617 323.758889,219.92609 323.96287,220.910159 C325.591726,231.14597 326.972103,240.452665 326.960298,248.95045 C326.771396,251.936554 330.885521,251.85607 331.084876,248.969419 C330.934511,239.885373 330.074389,234.093552 328.084459,223.292386 C340.317664,234.927406 345.166327,240.400565 350.310657,246.295127 C351.856942,249.04858 354.081626,248.211451 353.974709,245.759194 C353.599307,236.447423 350.88753,222.605051 349.993812,214.101889 Z M368.934758,212.303883 L373.751476,212.879845 C374.70874,213.01438 375.16185,213.263194 375.110819,213.626294 C375.045872,214.088421 374.438335,214.339643 373.288191,214.379968 C372.138046,214.420292 371.36908,214.682487 370.981267,215.166561 C370.593455,215.650635 370.323007,216.43731 370.169916,217.526611 L368.868647,226.785617 C368.780504,227.41279 368.818954,227.737969 368.984,227.761165 C369.3471,227.812195 369.834468,227.577745 370.446117,227.057807 L381.768364,218.348804 C382.333087,217.923254 382.653717,217.438162 382.730262,216.893512 C382.806808,216.348862 382.543096,215.949948 381.939119,215.696759 C380.95295,215.288873 380.486547,214.895134 380.539897,214.515529 C380.593247,214.135925 381.098546,214.013392 382.05581,214.147926 L384.729534,214.523694 C388.426553,215.043276 390.993998,215.336785 392.431946,215.404232 L392.77854,215.452942 C393.50474,215.555003 393.84232,215.78758 393.79129,216.15068 C393.726342,216.612807 393.135309,216.866349 392.018174,216.911312 C388.836454,217.036389 386.174711,217.773105 384.032866,219.121481 C380.488223,221.349862 376.885645,223.990818 373.225024,227.044426 C372.994495,227.247655 373.035265,227.55633 373.347335,227.970461 L383.534246,242.428913 C384.508638,243.878638 385.249726,244.83272 385.757531,245.29119 C386.265335,245.74966 387.111337,246.196748 388.295561,246.632469 C389.479784,247.068189 390.046372,247.467594 389.995342,247.830694 C389.944312,248.193794 389.440172,248.308075 388.482908,248.17354 L381.635338,246.95872 L377.617794,246.444583 C376.66053,246.310048 376.20742,246.061234 376.258451,245.698134 C376.309481,245.335034 376.803941,245.109996 377.741846,245.023013 C378.67975,244.936029 379.178849,244.677983 379.239158,244.248864 C379.276271,243.984791 379.086695,243.537391 378.670423,242.906649 L369.801907,229.845278 C369.319617,229.205258 368.97945,228.871336 368.781396,228.843501 C368.649359,228.824945 368.490561,229.475839 368.304996,230.796203 C368.119431,232.116567 367.800674,234.983409 367.348716,239.396815 C367.099809,241.886415 367.956605,243.454235 369.919129,244.100321 C370.980595,244.451467 371.484645,244.816837 371.431295,245.196442 C371.377945,245.576046 370.872646,245.698579 369.915382,245.564045 C368.958118,245.42951 368.0585,245.244171 367.2165,245.008022 C366.3745,244.771873 365.672934,244.614368 365.111779,244.535503 L358.82438,244.005306 C357.867116,243.870771 357.415165,243.613705 357.468515,243.234101 C357.521865,242.854496 358.14952,242.639762 359.351497,242.589892 C360.553474,242.540022 361.432039,242.276399 361.987216,241.799016 C362.542394,241.321633 362.905801,240.472286 363.077449,239.25095 L366.208843,216.969918 C366.366574,215.847609 366.240918,215.005265 365.831873,214.442861 C365.422828,213.880457 364.647483,213.409638 363.505814,213.03039 C362.364145,212.651142 361.825793,212.23046 361.890741,211.768333 C361.941771,211.405233 362.445911,211.290952 363.403175,211.425486 L368.934758,212.303883 Z" id="Combined-Shape"></path>
        </g>
    </g>
</svg>