<?xml version="1.0" encoding="UTF-8" standalone="no"?>
<svg width="400px" height="400px" viewBox="0 0 400 400" version="1.1" xmlns="http://www.w3.org/2000/svg" xmlns:xlink="http://www.w3.org/1999/xlink" xmlns:sketch="http://www.bohemiancoding.com/sketch/ns">
    <!-- Generator: Sketch 3.5.2 (25235) - http://www.bohemiancoding.com/sketch -->
    <title>go-home-youre-drunk--201602001</title>
    <desc>Created with Sketch.</desc>
    <defs></defs>
    <g id="Page-1" stroke="none" stroke-width="1" fill="none" fill-rule="evenodd" sketch:type="MSPage">
        <g id="go-home-youre-drunk--201602001" sketch:type="MSArtboardGroup" fill="#FFFFFF">
            <path d="M129.325195,134.024414 L119.046875,134.024414 L119.046875,130.435547 C119.046875,128.173166 118.94922,126.757164 118.753906,126.1875 C118.558593,125.617836 118.09473,125.333008 117.362305,125.333008 C116.727536,125.333008 116.296225,125.577146 116.068359,126.06543 C115.840494,126.553713 115.726562,127.806956 115.726562,129.825195 L115.726562,148.794922 C115.726562,150.569019 115.840494,151.736814 116.068359,152.29834 C116.296225,152.859866 116.75195,153.140625 117.435547,153.140625 C118.184249,153.140625 118.69287,152.823245 118.961426,152.188477 C119.229982,151.553708 119.364258,150.316741 119.364258,148.477539 L119.364258,143.790039 L117.289062,143.790039 L117.289062,137.78418 L129.325195,137.78418 L129.325195,159 L122.855469,159 L121.90332,156.167969 C121.203447,157.388678 120.320481,158.304196 119.254395,158.914551 C118.188308,159.524905 116.930997,159.830078 115.482422,159.830078 C113.757153,159.830078 112.141772,159.410974 110.63623,158.572754 C109.130689,157.734534 107.987309,156.696946 107.206055,155.459961 C106.424801,154.222976 105.936524,152.924974 105.741211,151.565918 C105.545897,150.206862 105.448242,148.168308 105.448242,145.450195 L105.448242,133.707031 C105.448242,129.930971 105.651691,127.188485 106.058594,125.479492 C106.465497,123.770499 107.633291,122.203946 109.562012,120.779785 C111.490732,119.355624 113.985011,118.643555 117.044922,118.643555 C120.056005,118.643555 122.554352,119.262038 124.540039,120.499023 C126.525726,121.736009 127.819658,123.204907 128.421875,124.905762 C129.024092,126.606617 129.325195,129.076481 129.325195,132.31543 L129.325195,134.024414 Z M158.791016,142.618164 C158.791016,146.589538 158.697429,149.401196 158.510254,151.053223 C158.323078,152.705249 157.737147,154.214837 156.752441,155.582031 C155.767736,156.949226 154.437183,157.99902 152.760742,158.731445 C151.084302,159.463871 149.131196,159.830078 146.901367,159.830078 C144.785471,159.830078 142.885262,159.484216 141.200684,158.79248 C139.516105,158.100745 138.161138,157.063158 137.135742,155.679688 C136.110346,154.296217 135.500001,152.790698 135.304688,151.163086 C135.109374,149.535474 135.011719,146.687195 135.011719,142.618164 L135.011719,135.855469 C135.011719,131.884095 135.105305,129.072437 135.29248,127.42041 C135.479656,125.768384 136.065588,124.258796 137.050293,122.891602 C138.034998,121.524407 139.365552,120.474613 141.041992,119.742188 C142.718433,119.009762 144.671538,118.643555 146.901367,118.643555 C149.017263,118.643555 150.917472,118.989417 152.602051,119.681152 C154.28663,120.372888 155.641596,121.410475 156.666992,122.793945 C157.692388,124.177416 158.302733,125.682935 158.498047,127.310547 C158.69336,128.938159 158.791016,131.786438 158.791016,135.855469 L158.791016,142.618164 Z M148.512695,129.629883 C148.512695,127.790681 148.410971,126.614749 148.20752,126.102051 C148.004068,125.589353 147.584964,125.333008 146.950195,125.333008 C146.413083,125.333008 146.002117,125.540525 145.717285,125.955566 C145.432453,126.370608 145.290039,127.595367 145.290039,129.629883 L145.290039,148.086914 C145.290039,150.381847 145.383625,151.797849 145.570801,152.334961 C145.757976,152.872073 146.193356,153.140625 146.876953,153.140625 C147.576826,153.140625 148.024413,152.831383 148.219727,152.212891 C148.41504,151.594398 148.512695,150.121431 148.512695,147.793945 L148.512695,129.629883 Z M199.070312,119.473633 L199.070312,159 L188.791992,159 L188.791992,142.398438 L185.71582,142.398438 L185.71582,159 L175.4375,159 L175.4375,119.473633 L185.71582,119.473633 L185.71582,133.609375 L188.791992,133.609375 L188.791992,119.473633 L199.070312,119.473633 Z M228.682617,142.618164 C228.682617,146.589538 228.589031,149.401196 228.401855,151.053223 C228.21468,152.705249 227.628748,154.214837 226.644043,155.582031 C225.659338,156.949226 224.328784,157.99902 222.652344,158.731445 C220.975903,159.463871 219.022798,159.830078 216.792969,159.830078 C214.677073,159.830078 212.776864,159.484216 211.092285,158.79248 C209.407706,158.100745 208.05274,157.063158 207.027344,155.679688 C206.001948,154.296217 205.391603,152.790698 205.196289,151.163086 C205.000976,149.535474 204.90332,146.687195 204.90332,142.618164 L204.90332,135.855469 C204.90332,131.884095 204.996907,129.072437 205.184082,127.42041 C205.371257,125.768384 205.957189,124.258796 206.941895,122.891602 C207.9266,121.524407 209.257153,120.474613 210.933594,119.742188 C212.610034,119.009762 214.56314,118.643555 216.792969,118.643555 C218.908865,118.643555 220.809074,118.989417 222.493652,119.681152 C224.178231,120.372888 225.533198,121.410475 226.558594,122.793945 C227.58399,124.177416 228.194335,125.682935 228.389648,127.310547 C228.584962,128.938159 228.682617,131.786438 228.682617,135.855469 L228.682617,142.618164 Z M218.404297,129.629883 C218.404297,127.790681 218.302573,126.614749 218.099121,126.102051 C217.89567,125.589353 217.476566,125.333008 216.841797,125.333008 C216.304685,125.333008 215.893719,125.540525 215.608887,125.955566 C215.324055,126.370608 215.181641,127.595367 215.181641,129.629883 L215.181641,148.086914 C215.181641,150.381847 215.275227,151.797849 215.462402,152.334961 C215.649578,152.872073 216.084958,153.140625 216.768555,153.140625 C217.468428,153.140625 217.916015,152.831383 218.111328,152.212891 C218.306642,151.594398 218.404297,150.121431 218.404297,147.793945 L218.404297,129.629883 Z M266.229492,119.473633 L266.229492,159 L257.245117,159 L257.245117,132.31543 L253.65625,159 L247.28418,159 L243.5,132.925781 L243.5,159 L234.515625,159 L234.515625,119.473633 L247.821289,119.473633 C248.211916,121.849947 248.626951,124.649398 249.066406,127.87207 L250.482422,137.930664 L252.826172,119.473633 L266.229492,119.473633 Z M272.355469,119.473633 L289.494141,119.473633 L289.494141,127.383789 L282.633789,127.383789 L282.633789,134.878906 L289.054688,134.878906 L289.054688,142.398438 L282.633789,142.398438 L282.633789,151.089844 L290.177734,151.089844 L290.177734,159 L272.355469,159 L272.355469,119.473633 Z M301.40625,150.943359 L301.40625,159 L293.959961,159 L293.959961,150.943359 L301.40625,150.943359 Z M71.3823242,180.473633 L63.887207,205.693359 L63.887207,220 L54.3657227,220 L54.3657227,205.693359 L47.1391602,180.473633 L56.5874023,180.473633 C58.0685295,188.172239 58.8985994,193.356106 59.0776367,196.025391 C59.647301,191.809875 60.5994399,186.626007 61.934082,180.473633 L71.3823242,180.473633 Z M98.6264648,203.618164 C98.6264648,207.589538 98.5328785,210.401196 98.3457031,212.053223 C98.1585277,213.705249 97.5725961,215.214837 96.5878906,216.582031 C95.6031852,217.949226 94.2726321,218.99902 92.5961914,219.731445 C90.9197507,220.463871 88.9666453,220.830078 86.7368164,220.830078 C84.6209204,220.830078 82.7207115,220.484216 81.0361328,219.79248 C79.3515541,219.100745 77.9965872,218.063158 76.9711914,216.679688 C75.9457957,215.296217 75.3354502,213.790698 75.1401367,212.163086 C74.9448232,210.535474 74.847168,207.687195 74.847168,203.618164 L74.847168,196.855469 C74.847168,192.884095 74.9407543,190.072437 75.1279297,188.42041 C75.3151051,186.768384 75.9010367,185.258796 76.8857422,183.891602 C77.8704476,182.524407 79.2010007,181.474613 80.8774414,180.742188 C82.5538821,180.009762 84.5069875,179.643555 86.7368164,179.643555 C88.8527124,179.643555 90.7529213,179.989417 92.4375,180.681152 C94.1220787,181.372888 95.4770457,182.410475 96.5024414,183.793945 C97.5278372,185.177416 98.1381826,186.682935 98.3334961,188.310547 C98.5288096,189.938159 98.6264648,192.786438 98.6264648,196.855469 L98.6264648,203.618164 Z M88.3481445,190.629883 C88.3481445,188.790681 88.2464203,187.614749 88.0429688,187.102051 C87.8395172,186.589353 87.4204133,186.333008 86.7856445,186.333008 C86.2485325,186.333008 85.8375665,186.540525 85.5527344,186.955566 C85.2679022,187.370608 85.1254883,188.595367 85.1254883,190.629883 L85.1254883,209.086914 C85.1254883,211.381847 85.2190746,212.797849 85.40625,213.334961 C85.5934254,213.872073 86.0288052,214.140625 86.7124023,214.140625 C87.4122756,214.140625 87.8598623,213.831383 88.0551758,213.212891 C88.2504893,212.594398 88.3481445,211.121431 88.3481445,208.793945 L88.3481445,190.629883 Z M127.82373,180.473633 L127.82373,206.889648 C127.82373,209.884455 127.726075,211.988112 127.530762,213.200684 C127.335448,214.413255 126.757655,215.658359 125.797363,216.936035 C124.837072,218.213711 123.571622,219.182126 122.000977,219.841309 C120.430331,220.500492 118.578949,220.830078 116.446777,220.830078 C114.08674,220.830078 112.003427,220.439457 110.196777,219.658203 C108.390128,218.876949 107.03923,217.859707 106.144043,216.606445 C105.248856,215.353184 104.71989,214.030769 104.557129,212.63916 C104.394368,211.247552 104.312988,208.321962 104.312988,203.862305 L104.312988,180.473633 L114.591309,180.473633 L114.591309,210.112305 C114.591309,211.837574 114.684895,212.940265 114.87207,213.42041 C115.059246,213.900556 115.43766,214.140625 116.007324,214.140625 C116.658369,214.140625 117.077473,213.876142 117.264648,213.347168 C117.451824,212.818194 117.54541,211.56902 117.54541,209.599609 L117.54541,180.473633 L127.82373,180.473633 Z M133.925293,193.193359 L132.631348,186.52832 L132.631348,180.473633 L140.102051,180.473633 L140.102051,186.52832 L138.979004,193.193359 L133.925293,193.193359 Z M145.056152,180.473633 L152.331543,180.473633 C157.181828,180.473633 160.465486,180.660805 162.182617,181.035156 C163.899748,181.409507 165.299474,182.365715 166.381836,183.903809 C167.464198,185.441902 168.005371,187.895491 168.005371,191.264648 C168.005371,194.340836 167.622888,196.407872 166.85791,197.46582 C166.092932,198.523768 164.587414,199.158528 162.341309,199.370117 C164.375824,199.874677 165.742998,200.550126 166.442871,201.396484 C167.142744,202.242843 167.578124,203.020016 167.749023,203.728027 C167.919923,204.436039 168.005371,206.385075 168.005371,209.575195 L168.005371,220 L158.459473,220 L158.459473,206.865234 C158.459473,204.749338 158.292645,203.43913 157.958984,202.93457 C157.625324,202.43001 156.750495,202.177734 155.334473,202.177734 L155.334473,220 L145.056152,220 L145.056152,180.473633 Z M155.334473,187.236328 L155.334473,196.025391 C156.490077,196.025391 157.299802,195.866701 157.763672,195.549316 C158.227541,195.231932 158.459473,194.202483 158.459473,192.460938 L158.459473,190.288086 C158.459473,189.034824 158.235679,188.212893 157.788086,187.822266 C157.340493,187.431639 156.52263,187.236328 155.334473,187.236328 L155.334473,187.236328 Z M173.984863,180.473633 L191.123535,180.473633 L191.123535,188.383789 L184.263184,188.383789 L184.263184,195.878906 L190.684082,195.878906 L190.684082,203.398438 L184.263184,203.398438 L184.263184,212.089844 L191.807129,212.089844 L191.807129,220 L173.984863,220 L173.984863,180.473633 Z M207.574707,180.473633 L215.265137,180.473633 C220.229354,180.473633 223.586254,180.701495 225.335938,181.157227 C227.085621,181.612958 228.416174,182.361648 229.327637,183.40332 C230.2391,184.444992 230.808755,185.604649 231.036621,186.882324 C231.264487,188.16 231.378418,190.670554 231.378418,194.414062 L231.378418,208.256836 C231.378418,211.805031 231.21159,214.17724 230.87793,215.373535 C230.544269,216.56983 229.962406,217.505693 229.132324,218.181152 C228.302242,218.856611 227.276862,219.328612 226.056152,219.597168 C224.835443,219.865724 222.996269,220 220.538574,220 L207.574707,220 L207.574707,180.473633 Z M217.853027,187.236328 L217.853027,213.237305 C219.334155,213.237305 220.245604,212.94027 220.587402,212.346191 C220.929201,211.752113 221.100098,210.136732 221.100098,207.5 L221.100098,192.143555 C221.100098,190.353181 221.043132,189.205732 220.929199,188.701172 C220.815266,188.196612 220.554852,187.826336 220.147949,187.590332 C219.741046,187.354328 218.97608,187.236328 217.853027,187.236328 L217.853027,187.236328 Z M237.211426,180.473633 L244.486816,180.473633 C249.337101,180.473633 252.62076,180.660805 254.337891,181.035156 C256.055022,181.409507 257.454747,182.365715 258.537109,183.903809 C259.619472,185.441902 260.160645,187.895491 260.160645,191.264648 C260.160645,194.340836 259.778161,196.407872 259.013184,197.46582 C258.248206,198.523768 256.742687,199.158528 254.496582,199.370117 C256.531097,199.874677 257.898271,200.550126 258.598145,201.396484 C259.298018,202.242843 259.733398,203.020016 259.904297,203.728027 C260.075196,204.436039 260.160645,206.385075 260.160645,209.575195 L260.160645,220 L250.614746,220 L250.614746,206.865234 C250.614746,204.749338 250.447918,203.43913 250.114258,202.93457 C249.780597,202.43001 248.905769,202.177734 247.489746,202.177734 L247.489746,220 L237.211426,220 L237.211426,180.473633 Z M247.489746,187.236328 L247.489746,196.025391 C248.645351,196.025391 249.455076,195.866701 249.918945,195.549316 C250.382815,195.231932 250.614746,194.202483 250.614746,192.460938 L250.614746,190.288086 C250.614746,189.034824 250.390953,188.212893 249.943359,187.822266 C249.495766,187.431639 248.677903,187.236328 247.489746,187.236328 L247.489746,187.236328 Z M289.504395,180.473633 L289.504395,206.889648 C289.504395,209.884455 289.406739,211.988112 289.211426,213.200684 C289.016112,214.413255 288.438319,215.658359 287.478027,216.936035 C286.517736,218.213711 285.252286,219.182126 283.681641,219.841309 C282.110995,220.500492 280.259614,220.830078 278.127441,220.830078 C275.767404,220.830078 273.684091,220.439457 271.877441,219.658203 C270.070792,218.876949 268.719894,217.859707 267.824707,216.606445 C266.92952,215.353184 266.400554,214.030769 266.237793,212.63916 C266.075032,211.247552 265.993652,208.321962 265.993652,203.862305 L265.993652,180.473633 L276.271973,180.473633 L276.271973,210.112305 C276.271973,211.837574 276.365559,212.940265 276.552734,213.42041 C276.73991,213.900556 277.118324,214.140625 277.687988,214.140625 C278.339033,214.140625 278.758137,213.876142 278.945312,213.347168 C279.132488,212.818194 279.226074,211.56902 279.226074,209.599609 L279.226074,180.473633 L289.504395,180.473633 Z M318.433105,180.473633 L318.433105,220 L309.424316,220 L304.077637,202.03125 L304.077637,220 L295.483887,220 L295.483887,180.473633 L304.077637,180.473633 L309.839355,198.271484 L309.839355,180.473633 L318.433105,180.473633 Z M349.046387,180.473633 L343.162598,198.320312 L349.60791,220 L338.987793,220 L334.837402,203.056641 L334.837402,220 L324.559082,220 L324.559082,180.473633 L334.837402,180.473633 L334.837402,195.830078 L339.402832,180.473633 L349.046387,180.473633 Z M359.664551,211.943359 L359.664551,220 L352.218262,220 L352.218262,211.943359 L359.664551,211.943359 Z" id="GO-HOME." sketch:type="MSShapeGroup"></path>
            <path d="M165.188,306.304 L165.188,305.424 L175.54,305.424 L175.54,306.304 L165.188,306.304 Z M182.468,307.568 C182.457333,308.048002 182.428,308.490665 182.38,308.896 C182.332,309.301335 182.241334,309.695998 182.108,310.08 C181.974666,310.464002 181.790668,310.847998 181.556,311.232 C181.321332,311.616002 181.012002,312.015998 180.628,312.432 L179.844,311.808 C180.388003,311.18933 180.779999,310.56267 181.02,309.928 C181.260001,309.29333 181.38,308.576004 181.38,307.776 L181.38,299.344 L182.468,299.344 L182.468,307.568 Z M191.636,306.192 C191.636,306.714669 191.558667,307.215998 191.404,307.696 C191.249333,308.176002 191.020002,308.597332 190.716,308.96 C190.411998,309.322668 190.036002,309.613332 189.588,309.832 C189.139998,310.050668 188.628003,310.16 188.052,310.16 C187.475997,310.16 186.964002,310.050668 186.516,309.832 C186.067998,309.613332 185.692002,309.322668 185.388,308.96 C185.083998,308.597332 184.854667,308.176002 184.7,307.696 C184.545333,307.215998 184.468,306.714669 184.468,306.192 C184.468,305.669331 184.545333,305.165336 184.7,304.68 C184.854667,304.194664 185.083998,303.770668 185.388,303.408 C185.692002,303.045332 186.067998,302.754668 186.516,302.536 C186.964002,302.317332 187.475997,302.208 188.052,302.208 C188.628003,302.208 189.139998,302.317332 189.588,302.536 C190.036002,302.754668 190.411998,303.045332 190.716,303.408 C191.020002,303.770668 191.249333,304.194664 191.404,304.68 C191.558667,305.165336 191.636,305.669331 191.636,306.192 L191.636,306.192 Z M190.564,306.192 C190.564,305.765331 190.510667,305.360002 190.404,304.976 C190.297333,304.591998 190.140001,304.261335 189.932,303.984 C189.723999,303.706665 189.462668,303.485334 189.148,303.32 C188.833332,303.154666 188.468002,303.072 188.052,303.072 C187.635998,303.072 187.270668,303.154666 186.956,303.32 C186.641332,303.485334 186.380001,303.706665 186.172,303.984 C185.963999,304.261335 185.806667,304.591998 185.7,304.976 C185.593333,305.360002 185.54,305.765331 185.54,306.192 C185.54,306.629336 185.593333,307.034665 185.7,307.408 C185.806667,307.781335 185.963999,308.109332 186.172,308.392 C186.380001,308.674668 186.641332,308.895999 186.956,309.056 C187.270668,309.216001 187.635998,309.296 188.052,309.296 C188.468002,309.296 188.833332,309.216001 189.148,309.056 C189.462668,308.895999 189.723999,308.674668 189.932,308.392 C190.140001,308.109332 190.297333,307.781335 190.404,307.408 C190.510667,307.034665 190.564,306.629336 190.564,306.192 L190.564,306.192 Z M194.228,313.296 L195.38,310.048 L192.628,302.368 L193.748,302.368 L195.924,308.864 L198.068,302.368 L199.172,302.368 L195.284,313.296 L194.228,313.296 Z M211.604,310 L205.284,301.088 L205.284,310 L204.244,310 L204.244,299.344 L205.284,299.344 L211.604,308.256 L211.604,299.344 L212.644,299.344 L212.644,310 L211.604,310 Z M218.084,302.208 C218.585336,302.208 219.014665,302.290666 219.372,302.456 C219.729335,302.621334 220.025332,302.847999 220.26,303.136 C220.494668,303.424001 220.665333,303.759998 220.772,304.144 C220.878667,304.528002 220.932,304.938664 220.932,305.376 C220.932,305.717335 220.9,306.069332 220.836,306.432 L215.812,306.432 C215.822667,307.370671 216.046664,308.085331 216.484,308.576 C216.921336,309.066669 217.577329,309.312 218.452,309.312 C218.857335,309.312 219.251998,309.266667 219.636,309.176 C220.020002,309.085333 220.366665,308.965334 220.676,308.816 L220.852,309.616 C220.521332,309.776001 220.134669,309.906666 219.692,310.008 C219.249331,310.109334 218.798669,310.16 218.34,310.16 C217.731997,310.16 217.201336,310.058668 216.748,309.856 C216.294664,309.653332 215.918668,309.373335 215.62,309.016 C215.321332,308.658665 215.097334,308.237336 214.948,307.752 C214.798666,307.266664 214.724,306.746669 214.724,306.192 C214.724,305.615997 214.801333,305.085336 214.956,304.6 C215.110667,304.114664 215.331999,303.693335 215.62,303.336 C215.908001,302.978665 216.259998,302.701334 216.676,302.504 C217.092002,302.306666 217.561331,302.208 218.084,302.208 L218.084,302.208 Z M218.036,303.024 C217.683998,303.024 217.372001,303.098666 217.1,303.248 C216.827999,303.397334 216.598668,303.591999 216.412,303.832 C216.225332,304.072001 216.081334,304.343998 215.98,304.648 C215.878666,304.952002 215.822667,305.263998 215.812,305.584 L219.908,305.584 C219.972,304.847996 219.849335,304.237336 219.54,303.752 C219.230665,303.266664 218.729337,303.024 218.036,303.024 L218.036,303.024 Z M229.54,306.192 C229.54,306.714669 229.462667,307.215998 229.308,307.696 C229.153333,308.176002 228.924002,308.597332 228.62,308.96 C228.315998,309.322668 227.940002,309.613332 227.492,309.832 C227.043998,310.050668 226.532003,310.16 225.956,310.16 C225.379997,310.16 224.868002,310.050668 224.42,309.832 C223.971998,309.613332 223.596002,309.322668 223.292,308.96 C222.987998,308.597332 222.758667,308.176002 222.604,307.696 C222.449333,307.215998 222.372,306.714669 222.372,306.192 C222.372,305.669331 222.449333,305.165336 222.604,304.68 C222.758667,304.194664 222.987998,303.770668 223.292,303.408 C223.596002,303.045332 223.971998,302.754668 224.42,302.536 C224.868002,302.317332 225.379997,302.208 225.956,302.208 C226.532003,302.208 227.043998,302.317332 227.492,302.536 C227.940002,302.754668 228.315998,303.045332 228.62,303.408 C228.924002,303.770668 229.153333,304.194664 229.308,304.68 C229.462667,305.165336 229.54,305.669331 229.54,306.192 L229.54,306.192 Z M228.468,306.192 C228.468,305.765331 228.414667,305.360002 228.308,304.976 C228.201333,304.591998 228.044001,304.261335 227.836,303.984 C227.627999,303.706665 227.366668,303.485334 227.052,303.32 C226.737332,303.154666 226.372002,303.072 225.956,303.072 C225.539998,303.072 225.174668,303.154666 224.86,303.32 C224.545332,303.485334 224.284001,303.706665 224.076,303.984 C223.867999,304.261335 223.710667,304.591998 223.604,304.976 C223.497333,305.360002 223.444,305.765331 223.444,306.192 C223.444,306.629336 223.497333,307.034665 223.604,307.408 C223.710667,307.781335 223.867999,308.109332 224.076,308.392 C224.284001,308.674668 224.545332,308.895999 224.86,309.056 C225.174668,309.216001 225.539998,309.296 225.956,309.296 C226.372002,309.296 226.737332,309.216001 227.052,309.056 C227.366668,308.895999 227.627999,308.674668 227.836,308.392 C228.044001,308.109332 228.201333,307.781335 228.308,307.408 C228.414667,307.034665 228.468,306.629336 228.468,306.192 L228.468,306.192 Z M231.54,302.368 L232.548,302.368 L232.548,303.424 C232.825335,303.093332 233.166665,302.808001 233.572,302.568 C233.977335,302.327999 234.478664,302.208 235.076,302.208 C235.566669,302.208 235.998665,302.309332 236.372,302.512 C236.745335,302.714668 237.057332,302.991998 237.308,303.344 C237.558668,303.696002 237.745333,304.109331 237.868,304.584 C237.990667,305.058669 238.052,305.573331 238.052,306.128 C238.052,306.74667 237.961334,307.303998 237.78,307.8 C237.598666,308.296002 237.340002,308.719998 237.004,309.072 C236.667998,309.424002 236.262669,309.693332 235.788,309.88 C235.313331,310.066668 234.78267,310.16 234.196,310.16 C233.875998,310.16 233.593335,310.141334 233.348,310.104 C233.102665,310.066666 232.857335,310.010667 232.612,309.936 L232.612,313.296 L231.54,313.296 L231.54,302.368 Z M234.82,303.088 C234.350664,303.088 233.926669,303.218665 233.548,303.48 C233.169331,303.741335 232.857335,304.015999 232.612,304.304 L232.612,309.04 C232.825334,309.125334 233.057332,309.186666 233.308,309.224 C233.558668,309.261334 233.822665,309.28 234.1,309.28 C235.038671,309.28 235.753331,309.008003 236.244,308.464 C236.734669,307.919997 236.98,307.141338 236.98,306.128 C236.98,305.679998 236.937334,305.269335 236.852,304.896 C236.766666,304.522665 236.636001,304.202668 236.46,303.936 C236.283999,303.669332 236.060001,303.461334 235.788,303.312 C235.515999,303.162666 235.193335,303.088 234.82,303.088 L234.82,303.088 Z" id="—-Joy-Neop" sketch:type="MSShapeGroup"></path>
        </g>
    </g>
</svg>