<?xml version="1.0" encoding="UTF-8" standalone="no"?>
<svg width="361px" height="66px" viewBox="0 0 361 66" version="1.1" xmlns="http://www.w3.org/2000/svg" xmlns:xlink="http://www.w3.org/1999/xlink" xmlns:sketch="http://www.bohemiancoding.com/sketch/ns">
    <!-- Generator: Sketch 3.0.4 (8053) - http://www.bohemiancoding.com/sketch -->
    <title>evenBits 4</title>
    <desc>Created with Sketch.</desc>
    <defs></defs>
    <g id="Page-1" stroke="none" stroke-width="1" fill="none" fill-rule="evenodd" sketch:type="MSPage">
        <path d="M40.696,42.688 L9.496,42.688 L9.496,49.696 C9.496,52.9600163 10.6479885,55.2799931 12.952,56.656 C15.2560115,58.0320069 18.6799773,58.72 23.224,58.72 C27.6400221,58.72 32.8559699,57.9520077 38.872,56.416 L38.872,63.04 C33.1119712,64.3200064 27.5120272,64.96 22.072,64.96 C7.86392896,64.96 0.76,60.2240474 0.76,50.752 L0.76,32.416 C0.76,26.7199715 2.39198368,22.6560122 5.656,20.224 C8.92001632,17.7919878 14.1359642,16.576 21.304,16.576 C28.0240336,16.576 32.9359845,17.7439883 36.04,20.08 C39.1440155,22.4160117 40.696,26.5279706 40.696,32.416 L40.696,42.688 Z M32.056,37.024 L32.056,29.728 C32.056,26.9119859 31.1920086,24.9760053 29.464,23.92 C27.7359914,22.8639947 24.8560202,22.336 20.824,22.336 C16.9839808,22.336 14.1360093,22.8479949 12.28,23.872 C10.4239907,24.8960051 9.496,26.8479856 9.496,29.728 L9.496,37.024 L32.056,37.024 Z M90.232,17.536 L74.008,64 L63.64,64 L46.936,17.536 L56.056,17.536 L68.92,56.512 L69.4,56.512 L81.88,17.536 L90.232,17.536 Z M135.544,42.688 L104.344,42.688 L104.344,49.696 C104.344,52.9600163 105.495988,55.2799931 107.8,56.656 C110.104012,58.0320069 113.527977,58.72 118.072,58.72 C122.488022,58.72 127.70397,57.9520077 133.72,56.416 L133.72,63.04 C127.959971,64.3200064 122.360027,64.96 116.92,64.96 C102.711929,64.96 95.608,60.2240474 95.608,50.752 L95.608,32.416 C95.608,26.7199715 97.2399837,22.6560122 100.504,20.224 C103.768016,17.7919878 108.983964,16.576 116.152,16.576 C122.872034,16.576 127.783984,17.7439883 130.888,20.08 C133.992016,22.4160117 135.544,26.5279706 135.544,32.416 L135.544,42.688 Z M126.904,37.024 L126.904,29.728 C126.904,26.9119859 126.040009,24.9760053 124.312,23.92 C122.583991,22.8639947 119.70402,22.336 115.672,22.336 C111.831981,22.336 108.984009,22.8479949 107.128,23.872 C105.271991,24.8960051 104.344,26.8479856 104.344,29.728 L104.344,37.024 L126.904,37.024 Z M188.728,64 L180.088,64 L180.088,30.4 C180.088,29.2479942 179.992001,28.2880038 179.8,27.52 C179.607999,26.7519962 179.208003,25.968004 178.6,25.168 C177.991997,24.367996 176.968007,23.7600021 175.528,23.344 C174.087993,22.9279979 172.280011,22.72 170.104,22.72 C165.047975,22.72 161.656009,23.2639946 159.928,24.352 C158.199991,25.4400054 157.336,27.4559853 157.336,30.4 L157.336,64 L148.696,64 L148.696,17.536 L157.336,17.536 L157.336,23.2 C158.232004,18.7839779 163.319954,16.576 172.6,16.576 C178.744031,16.576 182.967988,17.679989 185.272,19.888 C187.576012,22.096011 188.728,25.4399776 188.728,29.92 L188.728,64 Z M249.304,41.152 L249.304,51.616 C249.304,56.1600227 247.576017,59.3599907 244.12,61.216 C240.663983,63.0720093 235.032039,64 227.224,64 L204.28,64 L204.28,1.696 L226.552,1.696 C231.928027,1.696 236.135985,2.23999456 239.176,3.328 C242.216015,4.41600544 244.199995,5.759992 245.128,7.36 C246.056005,8.960008 246.52,11.0079875 246.52,13.504 L246.52,21.856 C246.52,24.4160128 245.800007,26.3679933 244.36,27.712 C242.919993,29.0560067 240.792014,30.0479968 237.976,30.688 L237.976,31.072 C241.304017,31.6480029 244.023989,32.7999914 246.136,34.528 C248.248011,36.2560086 249.304,38.4639866 249.304,41.152 Z M237.784,21.568 L237.784,14.272 C237.784,11.9039882 236.920009,10.2400048 235.192,9.28 C233.463991,8.3199952 230.58402,7.84 226.552,7.84 L213.592,7.84 L213.592,28.96 L226.84,28.96 C230.80802,28.96 233.623992,28.3680059 235.288,27.184 C236.952008,25.9999941 237.784,24.1280128 237.784,21.568 Z M239.992,51.232 L239.992,41.824 C239.992,40.1599917 239.656003,38.832005 238.984,37.84 C238.311997,36.847995 237.256007,36.1440021 235.816,35.728 C234.375993,35.3119979 233.096006,35.0560005 231.976,34.96 C230.855994,34.8639995 229.27201,34.816 227.224,34.816 L213.592,34.816 L213.592,57.568 L227.224,57.568 C231.896023,57.568 235.19199,57.0880048 237.112,56.128 C239.03201,55.1679952 239.992,53.5360115 239.992,51.232 Z M271.192,9.76 L262.552,9.76 L262.552,0.736 L271.192,0.736 L271.192,9.76 Z M271.192,64 L262.552,64 L262.552,17.536 L271.192,17.536 L271.192,64 Z M315.352,64.192 C312.279985,64.7040026 309.048017,64.96 305.656,64.96 C299.831971,64.96 295.768012,63.9520101 293.464,61.936 C291.159988,59.9199899 290.008,56.0960282 290.008,50.464 L290.008,23.2 L279.64,23.2 L279.64,17.536 L290.008,17.536 L290.008,3.136 L298.744,3.136 L298.744,17.536 L315.352,17.536 L315.352,23.2 L298.744,23.2 L298.744,50.944 C298.744,54.2720166 299.383994,56.4959944 300.664,57.616 C301.944006,58.7360056 304.53598,59.296 308.44,59.296 C309.464005,59.296 311.767982,59.0400026 315.352,58.528 L315.352,64.192 Z M359.224,47.68 L359.224,51.712 C359.224,56.704025 357.480017,60.1599904 353.992,62.08 C350.503983,64.0000096 345.496033,64.96 338.968,64.96 C333.975975,64.96 328.664028,64.5760038 323.032,63.808 L323.032,57.184 C330.712038,58.4000061 336.087985,59.008 339.16,59.008 C343.000019,59.008 345.87999,58.6400037 347.8,57.904 C349.72001,57.1679963 350.68,55.6480115 350.68,53.344 L350.68,48.64 C350.68,46.6559901 350.008007,45.2480042 348.664,44.416 C347.319993,43.5839958 345.144015,43.168 342.136,43.168 L336.856,43.168 C331.991976,43.168 328.312012,42.1600101 325.816,40.144 C323.319988,38.1279899 322.072,35.3600176 322.072,31.84 L322.072,27.52 C322.072,20.2239635 328.983931,16.576 342.808,16.576 C344.344008,16.576 349.047961,16.8319974 356.92,17.344 L356.92,23.584 C351.415972,22.6879955 346.584021,22.24 342.424,22.24 C337.815977,22.24 334.696008,22.6879955 333.064,23.584 C331.431992,24.4800045 330.616,25.9839894 330.616,28.096 L330.616,32.032 C330.616,35.1680157 333.463972,36.736 339.16,36.736 L344.536,36.736 C354.328049,36.736 359.224,40.3839635 359.224,47.68 L359.224,47.68 Z" id="evenBits-4" fill="#494949" sketch:type="MSShapeGroup"></path>
    </g>
</svg>