<?xml version="1.0" encoding="UTF-8" standalone="no"?>
<svg width="357px" height="31px" viewBox="0 0 357 31" version="1.1" xmlns="http://www.w3.org/2000/svg" xmlns:xlink="http://www.w3.org/1999/xlink" xmlns:sketch="http://www.bohemiancoding.com/sketch/ns">
    <!-- Generator: Sketch 3.0.4 (8053) - http://www.bohemiancoding.com/sketch -->
    <title>h2 2</title>
    <desc>Created with Sketch.</desc>
    <defs></defs>
    <g id="Page-1" stroke="none" stroke-width="1" fill="none" fill-rule="evenodd" sketch:type="MSPage">
        <g id="h2-+-h2-2" sketch:type="MSLayerGroup" transform="translate(-2.000000, -1.000000)" fill="#000000">
            <path d="M30.592,14.336 L17.504,14.336 L17.504,5.28 L28.352,5.28 L28.352,3.776 L4.544,3.776 L4.544,5.28 L15.936,5.28 L15.936,14.336 L2.336,14.336 L2.336,15.84 L15.936,15.84 L15.936,27.712 C15.936,28.384 15.648,28.576 14.976,28.608 C14.304,28.64 11.904,28.64 9.12,28.576 C9.376,29.056 9.664,29.728 9.792,30.176 C13.12,30.208 15.072,30.176 16.064,29.888 C17.056,29.6 17.504,29.088 17.504,27.68 L17.504,15.84 L30.592,15.84 L30.592,14.336 Z M40.608,14.08 C39.392,13.088 36.992,11.712 35.04,10.816 L34.112,11.904 C36.096,12.864 38.496,14.336 39.68,15.328 L40.608,14.08 Z M36.128,29.6 C37.792,26.816 39.872,22.944 41.376,19.744 L40.16,18.752 C38.56,22.176 36.32,26.24 34.784,28.608 L36.128,29.6 Z M35.648,3.104 C37.536,4.224 39.776,5.888 40.896,7.04 L41.92,5.888 C40.8,4.768 38.528,3.168 36.64,2.112 L35.648,3.104 Z M60.224,18.976 C58.912,20.16 56.736,21.664 55.008,22.72 C53.952,21.248 53.088,19.584 52.48,17.76 L59.744,17.76 L59.744,4.992 L53.568,4.992 C53.152,3.872 52.416,2.336 51.648,1.12 L50.272,1.536 C50.912,2.624 51.52,3.936 51.936,4.992 L44.096,4.992 L44.096,27.04 C44.096,28.384 43.52,29.024 43.168,29.312 C43.424,29.6 43.872,30.24 44,30.624 C44.576,30.144 45.44,29.792 52.192,27.424 C52.096,27.104 52,26.432 52,26.016 L45.6,28.16 L45.6,17.76 L50.976,17.76 C52.896,23.584 56.64,28.064 61.856,30.112 C62.112,29.664 62.56,29.12 62.912,28.8 C60.096,27.84 57.696,26.112 55.84,23.808 C57.568,22.784 59.744,21.376 61.28,20 L60.224,18.976 Z M45.6,12 L58.24,12 L58.24,16.352 L45.6,16.352 L45.6,12 Z M58.24,6.4 L58.24,10.592 L45.6,10.592 L45.6,6.4 L58.24,6.4 Z M71.424,13.92 C70.4,12.992 68.384,11.648 66.752,10.752 L65.792,11.776 C67.456,12.704 69.472,14.112 70.464,15.072 L71.424,13.92 Z M67.936,30.048 C69.28,27.072 70.944,22.88 72.064,19.392 L70.848,18.56 C69.632,22.24 67.808,26.624 66.528,29.184 L67.936,30.048 Z M66.912,2.944 C68.608,3.936 70.56,5.472 71.616,6.496 L72.608,5.408 C71.616,4.352 69.536,2.912 67.872,1.952 L66.912,2.944 Z M84.448,24.224 L84.448,22.816 L79.424,22.816 L79.424,19.648 L83.392,19.648 L83.392,9.664 L79.424,9.664 L79.424,6.56 L84.32,6.56 L84.32,5.152 L79.424,5.152 L79.424,1.376 L77.984,1.376 L77.984,5.152 L73.312,5.152 L73.312,6.56 L77.984,6.56 L77.984,9.664 L74.112,9.664 L74.112,19.648 L77.984,19.648 L77.984,22.816 L72.64,22.816 L72.64,24.224 L77.984,24.224 L77.984,30.336 L79.424,30.336 L79.424,24.224 L84.448,24.224 Z M75.456,15.232 L82.016,15.232 L82.016,18.368 L75.456,18.368 L75.456,15.232 Z M75.456,10.944 L82.016,10.944 L82.016,14.016 L75.456,14.016 L75.456,10.944 Z M93.952,2.592 L85.984,2.592 L85.984,15.232 C85.984,19.744 85.664,25.504 82.528,29.536 C82.88,29.664 83.488,30.08 83.712,30.368 C86.112,27.36 86.976,23.2 87.264,19.328 L92.512,19.328 L92.512,28.16 C92.512,28.672 92.352,28.8 91.904,28.8 C91.488,28.8 90.016,28.832 88.352,28.768 C88.576,29.216 88.768,29.92 88.864,30.304 C90.944,30.336 92.256,30.304 92.992,30.016 C93.696,29.76 93.952,29.248 93.952,28.192 L93.952,2.592 Z M87.36,17.888 C87.424,16.992 87.424,16.064 87.424,15.232 L87.424,11.616 L92.512,11.616 L92.512,17.888 L87.36,17.888 Z M92.512,4.032 L92.512,10.176 L87.424,10.176 L87.424,4.032 L92.512,4.032 Z M114.912,6.592 C114.272,5.216 112.768,3.008 111.488,1.344 L110.176,1.984 C111.424,3.68 112.864,5.952 113.472,7.328 L114.912,6.592 Z M122.4,7.808 L122.08,7.936 L99.872,7.936 L99.872,9.44 L120.96,9.44 C117.248,14.528 110.336,20.864 104.224,24.288 C104.032,24.224 103.84,24.192 103.68,24.192 C102.112,24.192 100.224,25.952 98.208,28.16 L99.392,29.536 C101.056,27.36 102.592,25.664 103.648,25.664 C104.32,25.664 105.344,26.72 106.56,27.52 C108.64,28.896 111.328,29.216 115.2,29.216 C118.208,29.216 124.096,29.056 126.528,28.896 C126.56,28.448 126.816,27.584 127.008,27.168 C123.904,27.456 119.232,27.68 115.2,27.68 C111.648,27.68 109.024,27.456 107.008,26.176 C106.464,25.824 105.984,25.472 105.6,25.152 C112.192,21.312 119.68,14.368 123.52,8.576 L122.4,7.808 Z M158.464,9.472 L158.464,8.16 L145.184,8.16 L145.184,9.472 L150.72,9.472 C150.496,10.432 150.176,11.616 149.92,12.512 L145.952,12.512 L145.952,24.992 L147.36,24.992 L147.36,13.824 L155.744,13.824 L155.744,24.992 L157.216,24.992 L157.216,12.512 L151.328,12.512 C151.616,11.648 151.936,10.528 152.224,9.472 L158.464,9.472 Z M157.344,2.016 L155.808,2.016 L155.808,5.024 L145.184,5.024 L145.184,1.312 L143.68,1.312 L143.68,5.024 L133.696,5.024 L133.696,2.016 L132.16,2.016 L132.16,6.336 L157.344,6.336 L157.344,2.016 Z M144.512,24 L142.816,24 L142.816,12.224 L137.376,12.224 C137.536,11.616 137.76,10.944 137.984,10.24 L144.032,10.24 L144.032,8.992 L138.368,8.992 L138.944,7.04 L137.344,6.784 C137.216,7.424 137.056,8.192 136.864,8.992 L130.496,8.992 L130.496,10.24 L136.544,10.24 C136.352,10.944 136.128,11.616 135.968,12.224 L132.256,12.224 L132.256,24 L130.048,24 L130.048,25.248 L144.512,25.248 L144.512,24 Z M133.696,22.272 L141.344,22.272 L141.344,24 L133.696,24 L133.696,22.272 Z M141.344,13.536 L141.344,15.424 L133.696,15.424 L133.696,13.536 L141.344,13.536 Z M133.696,19.36 L141.344,19.36 L141.344,21.216 L133.696,21.216 L133.696,19.36 Z M141.344,18.304 L133.696,18.304 L133.696,16.48 L141.344,16.48 L141.344,18.304 Z M134.72,25.408 C133.632,26.784 131.872,28.16 130.208,29.12 C130.56,29.344 131.104,29.856 131.328,30.08 C132.96,29.024 134.88,27.36 136.064,25.824 L134.72,25.408 Z M138.496,26.176 C139.776,27.168 141.248,28.576 141.984,29.472 L143.072,28.704 C142.304,27.776 140.768,26.432 139.552,25.504 L138.496,26.176 Z M151.04,15.712 C150.88,24.032 150.144,27.424 144,29.248 C144.32,29.504 144.736,30.048 144.864,30.4 C151.296,28.288 152.256,24.544 152.448,15.712 L151.04,15.712 Z M152.608,26.112 C154.432,27.36 156.384,28.928 157.536,30.144 L158.784,29.248 C157.568,28.032 155.52,26.496 153.6,25.28 L152.608,26.112 Z M178.368,4.352 L170.272,4.352 L170.272,25.056 L171.744,25.056 L171.744,22.624 L178.368,22.624 L178.368,4.352 Z M176.832,5.856 L176.832,21.12 L171.744,21.12 L171.744,5.856 L176.832,5.856 Z M197.888,11.808 L184.352,11.808 L184.352,5.728 C188.512,4.96 193.024,3.904 196.096,2.688 L194.688,1.504 C192.032,2.656 187.072,3.872 182.784,4.64 L182.784,12.896 C182.784,17.792 182.4,24.352 178.88,29.152 C179.2,29.312 179.872,29.792 180.128,30.112 C183.712,25.28 184.32,18.4 184.352,13.344 L191.68,13.344 L191.68,30.336 L193.248,30.336 L193.248,13.344 L197.888,13.344 L197.888,11.808 Z M207.52,15.136 L208.96,15.136 L208.96,7.712 C210.432,9.024 212.608,11.104 213.312,12 L214.272,10.752 C213.504,10.048 210.432,7.424 209.088,6.368 L214.464,6.368 L214.464,4.992 L208.96,4.992 L208.96,1.344 L207.52,1.344 L207.52,4.992 L201.472,4.992 L201.472,6.368 L206.944,6.368 C205.536,8.928 203.2,11.552 201.024,12.768 C201.344,13.056 201.792,13.536 202.016,13.92 C203.936,12.576 206.08,10.24 207.52,7.744 L207.52,15.136 Z M224.416,16.64 L213.824,16.64 C214.496,16.032 215.136,15.456 215.712,14.816 L214.208,14.208 C211.872,16.992 207.072,19.808 202.88,21.44 C203.232,21.728 203.712,22.24 203.936,22.56 C206.72,21.44 209.6,19.808 212.064,18.016 L223.488,18.016 C221.952,20.576 219.712,22.656 217.024,24.32 C215.36,23.104 212.704,21.6 210.528,20.608 L209.376,21.536 C211.456,22.496 213.952,23.968 215.552,25.12 C211.68,27.168 207.008,28.448 202.24,29.216 C202.56,29.568 202.944,30.208 203.104,30.624 C212.672,28.928 221.76,25.216 225.76,17.248 L224.768,16.544 L224.416,16.64 Z M229.728,6.368 L229.728,4.992 L222.688,4.992 L222.688,1.344 L221.216,1.344 L221.216,4.992 L215.584,4.992 L215.584,6.368 L220.608,6.368 C219.168,8.928 216.704,11.488 214.432,12.704 C214.752,12.992 215.2,13.504 215.488,13.856 C217.472,12.544 219.68,10.208 221.216,7.712 L221.216,15.136 L222.688,15.136 L222.688,7.488 C224.384,10.144 226.944,12.704 229.184,14.08 C229.472,13.728 229.888,13.184 230.24,12.928 C227.808,11.68 225.056,8.992 223.424,6.368 L229.728,6.368 Z M260.16,3.072 L248.032,3.072 L248.032,19.424 L260.16,19.424 L260.16,3.072 Z M258.688,8.064 L249.472,8.064 L249.472,4.448 L258.688,4.448 L258.688,8.064 Z M258.688,13.056 L249.472,13.056 L249.472,9.376 L258.688,9.376 L258.688,13.056 Z M258.688,18.08 L249.472,18.08 L249.472,14.368 L258.688,14.368 L258.688,18.08 Z M244.992,20.224 C246.528,21.76 248.448,23.872 249.44,25.088 L250.56,24.224 C249.568,23.008 247.616,20.96 246.08,19.52 L244.992,20.224 Z M234.656,28.736 C236.032,27.008 237.152,24.128 237.824,22.048 L236.544,21.504 C235.872,23.552 234.752,26.368 233.376,28.032 L234.656,28.736 Z M241.152,19.712 L241.152,11.264 C242.656,12.448 244.896,14.336 245.728,15.168 L246.624,13.888 C245.76,13.216 242.368,10.624 241.152,9.824 L241.152,7.648 L246.56,7.648 L246.56,6.24 L241.152,6.24 L241.152,1.44 L239.68,1.44 L239.68,6.24 L233.504,6.24 L233.504,7.648 L239.328,7.648 C237.856,11.2 235.264,14.848 232.8,16.576 C233.12,16.8 233.6,17.312 233.856,17.664 C235.936,16 238.144,13.024 239.68,9.888 L239.68,19.712 L241.152,19.712 Z M244.8,28.192 C242.88,28.192 242.528,28.032 242.528,27.264 L242.528,21.728 L241.024,21.728 L241.024,27.264 C241.024,29.216 241.792,29.632 244.8,29.632 L251.968,29.632 C254.528,29.632 255.04,28.8 255.296,25.056 C254.816,24.96 254.208,24.768 253.856,24.448 C253.696,27.744 253.472,28.192 251.872,28.192 L244.8,28.192 Z M256.48,21.344 C257.792,23.456 259.392,26.272 260.16,27.904 L261.6,27.264 C260.8,25.664 259.168,22.848 257.824,20.832 L256.48,21.344 Z M271.712,1.248 C271.392,2.752 270.72,4.96 270.176,6.464 L266.624,6.464 L266.624,29.568 L268.064,29.568 L268.064,26.944 L277.184,26.944 L277.184,6.464 L271.616,6.464 C272.16,5.088 272.8,3.232 273.344,1.632 L271.712,1.248 Z M275.712,15.52 L268.064,15.52 L268.064,7.872 L275.712,7.872 L275.712,15.52 Z M268.064,25.504 L268.064,16.928 L275.712,16.928 L275.712,25.504 L268.064,25.504 Z M292.896,6.464 L282.944,6.464 C283.52,4.864 284,3.168 284.384,1.472 L282.88,1.12 C281.888,5.664 280.224,10.112 277.984,13.024 C278.368,13.248 279.04,13.632 279.296,13.856 C280.448,12.224 281.504,10.176 282.432,7.904 L291.392,7.904 C290.912,21.568 290.368,26.528 289.312,27.68 C288.992,28.096 288.608,28.16 287.968,28.16 C287.264,28.16 285.376,28.128 283.264,27.968 C283.552,28.384 283.712,28.992 283.776,29.472 C285.536,29.6 287.392,29.632 288.384,29.568 C289.376,29.504 290.016,29.28 290.624,28.576 C291.904,27.072 292.352,22.208 292.896,7.36 L292.896,6.464 Z M287.936,20.8 C286.912,18.88 284.608,15.776 282.72,13.472 L281.472,14.176 C283.392,16.48 285.632,19.68 286.656,21.632 L287.936,20.8 Z M308.416,24.128 L304.128,25.312 L304.128,18.656 L308.064,18.656 L308.064,17.216 L304.128,17.216 L304.128,12.096 L307.776,12.096 L307.776,2.816 L298.624,2.816 L298.624,12.096 L302.72,12.096 L302.72,25.696 L300.096,26.336 L300.096,15.616 L298.752,15.616 L298.752,26.688 C298.112,26.848 297.536,27.008 296.992,27.136 L297.408,28.608 C300.416,27.776 304.608,26.624 308.576,25.536 L308.416,24.128 Z M300,4.224 L306.368,4.224 L306.368,10.688 L300,10.688 L300,4.224 Z M325.664,14.656 L325.664,13.216 L318.144,13.216 C318.176,12.608 318.176,12.032 318.176,11.456 L318.176,4.832 C320.64,4.32 322.944,3.712 324.704,3.072 L323.52,1.856 C320.512,3.04 314.816,4.128 310.08,4.832 C310.272,5.184 310.464,5.728 310.528,6.112 C312.48,5.856 314.624,5.504 316.672,5.088 L316.672,11.456 C316.672,12 316.672,12.608 316.64,13.216 L309.6,13.216 L309.6,14.656 L316.576,14.656 C316.256,19.392 314.752,25.088 307.872,29.28 C308.256,29.568 308.736,30.08 308.96,30.4 C314.88,26.592 317.024,21.76 317.76,17.344 C319.04,23.328 321.408,28 325.472,30.336 C325.696,29.92 326.176,29.344 326.56,29.088 C322.048,26.816 319.68,21.376 318.592,14.656 L325.664,14.656 Z M342.848,4.064 L330.656,4.064 L330.656,5.504 L342.848,5.504 L342.848,4.064 Z M343.648,25.536 C343.008,23.296 341.536,19.36 340.256,16.416 L338.944,16.768 C339.648,18.464 340.448,20.448 341.056,22.272 L332.16,24.032 C333.536,20.96 334.848,16.96 335.776,13.216 L343.456,13.216 L343.456,11.776 L329.472,11.776 L329.472,13.216 L334.176,13.216 C333.312,17.152 331.808,21.248 331.328,22.336 C330.848,23.552 330.368,24.512 329.92,24.64 C330.112,24.992 330.368,25.792 330.464,26.144 L330.464,26.176 C331.104,25.792 332.128,25.504 341.504,23.584 C341.824,24.512 342.08,25.344 342.272,26.048 L343.648,25.536 Z M357.6,8.96 L350.464,8.96 C350.592,6.592 350.592,4.224 350.624,1.92 L349.12,1.92 C349.12,4.224 349.088,6.592 348.992,8.96 L343.872,8.96 L343.872,10.464 L348.928,10.464 C348.512,17.92 347.136,25.216 342.528,29.28 C342.944,29.472 343.552,29.952 343.776,30.304 C348.576,25.888 349.952,18.304 350.4,10.464 L356.096,10.464 C355.648,22.656 355.168,27.008 354.24,28 C353.952,28.416 353.568,28.48 352.96,28.448 C352.32,28.448 350.464,28.448 348.48,28.288 C348.768,28.736 348.928,29.312 348.96,29.792 C350.72,29.92 352.512,29.952 353.472,29.92 C354.432,29.824 355.008,29.632 355.584,28.928 C356.704,27.584 357.12,23.168 357.6,9.888 L357.6,8.96 Z" id="h2-2" sketch:type="MSShapeGroup"></path>
        </g>
    </g>
</svg>